<?xml version="1.0" encoding="utf-8"?>
<!-- Generator: Adobe Illustrator 19.2.1, SVG Export Plug-In . SVG Version: 6.00 Build 0)  -->
<svg version="1.1" id="SvgjsSvg1068" xmlns:svgjs="http://svgjs.com/svgjs"
	 xmlns="http://www.w3.org/2000/svg" xmlns:xlink="http://www.w3.org/1999/xlink" x="0px" y="0px" viewBox="0 0 186 117.3">

<title>Group 6</title>
<desc>Created with Avocode.</desc>
<g>
	<!-- <path id="SvgjsPath1070_1_" class="st0" d="M184,55.3c0.5-0.4,1.4-0.9,0.8-1.8c-0.6-0.7-0.5,0.3-1.5,0.1c1.2-1.4-0.8-2.4-0.7-3.9
		c-0.7,0-1.5,0.1-1.8-0.3c-0.1-1.2,0.2-2.1,0.8-2.6c1.5,0.6,3.5-0.3,2.6-1.8c-1.1,0-3.8,0.7-4.1-1.1c1,0.1,1.1-0.7,2.2-0.6
		c-0.1-1.5,2-2.3,2.1-3.5c0.2-1.5-1.1-1.6-1.5-3c-0.2-0.5,0.7-1.1,0.7-1.8c-1.6-0.7-2.5,0.5-3.5,0.9c-0.3-0.5-1.2-0.4-1.8-0.6
		c-0.3-0.4-0.3-1.1-0.7-1.5c-1.4-0.2-1.9-0.6-3,0.2c-0.8-0.4-0.7-1.5-1.5-1.8c-1.2-0.2-0.9,1.1-2,1.1c-0.8-0.8-2.7-0.7-3.1-1.8
		c-1.2-0.1-1.8,0.3-3,0.2c-0.3-0.3-0.1-1-0.5-1.2c-0.9-0.1-1.4,0.1-2,0.3c-0.2,0.8,0.6,1.7-0.2,2c-1.1,0.3-1.4-1-2.2-1.5
		c-1.7,0-2.3-1-3-2c0-0.5,0.3-0.8,0.2-1.4c-0.3-0.2-1.1-0.1-1.5-0.3c-0.1-0.5-0.3-0.9-0.5-1.4h-1.8c-1.2,2.1-5.6,1.3-6.5,3.6
		c-0.7-0.8-2-1.6-3.2-0.8c-0.5-0.6-1-1.3-1.5-1.8c-2.6-0.4-3.8,0.6-5,1.5c-0.3-1-0.9-1.7-2-2c0-0.8-0.3-1.2-0.5-1.8
		c1.5-1.5-0.8-3.3-1.2-4.6c0.1-0.6,0.7-0.6,0.5-1.4c-0.9-0.4-1.1-0.4-2.2-0.1c-0.4-0.5-0.2-1.4-0.5-2c-2.1-0.4-2.5,0.7-4.3,0.6
		c-0.3-1.1-3.2-1-3.8-0.9c0-0.6,0.3-0.9,0.3-1.5c-0.1-0.3-1.1,0.1-1.2-0.3c1.1-1.4-0.6-2.7-1.2-3.5c0.8-0.4,2-0.5,3-0.8V8.8
		c-1.5-1.4-3.9-1.9-3.5-5c-1.5-1.2-3.3-4-5.6-1.8c-0.1-1.1-2.4-0.3-3.3-0.8c-0.9,0.6-1.7,1.3-2.7,1.8c-1.8-0.1-2.9-1.1-5.5-0.9
		c-0.1,2.4-0.7,4.4-3.5,3.9c-0.3-0.2-0.2-0.8-0.8-0.8c-2,0.2-3.3-0.5-4.8-0.1c-0.5,0.1-0.9,0.9-1.3,0.9c0.1,0-0.7-0.4-1.2-0.4
		c-0.8-0.1-1.1,0.3-1.7,0.2C90.6,6,90.7,6.5,90.7,7c-2.7,1.8-5.2,6-2.8,9.4c-0.3,0.3-0.7,0.5-0.8,0.9c0.1-0.6-0.9-0.3-1.2-0.6
		c0.1-2.7-3.6-3.2-5.8-2c-0.4-0.2-0.2-0.9-1-0.8c-1.6,0.1-1.7,1.5-3.5,1.4c-0.8-1.2-0.5-3.3-1.8-3.5c-1.6-0.3-1,1.4-3,1.1
		c-0.5,0.6-0.8,1.3-1.3,1.8c-0.1-0.7-0.2-1.2-0.3-1.8c-0.9-0.1-2.2-0.6-2.7,0.1c-0.4-0.7-0.8-1.4-1.7-1.7c-0.5,1.4-2.5,1.5-3.3,0.3
		c-1.2,0.3-0.3,1.7-1.3,2c0.2-0.5,0.5-0.9,0.2-1.5c-1.5-0.6-2.4-0.8-3.8-0.1c0-1.2-1.3-1.3-1.2-2.6c-1.1-0.3-1.8,0.1-2.8,0.1
		c-1.3-0.4-2-1.3-4-1.1c-0.5-0.1-0.3-0.8-1-0.8c-1.6,0.2-2.1-0.5-2.8-1.1c-1.5-0.4-2.6,0.1-4.2,0c-1.3-0.1-2.6-1-4-1.1
		c-0.5,0-1.3,0.5-2.3,0.6c-3,0.3-6.3-0.9-7.1,0.9c-0.1,0.6,0.3,0.8,0,1.1c-1.1,0.5-1.6,1.4-2.8,1.7c-1.1-1-4-1.5-4.3,0.2
		c-0.2,0.9,0.9,1.5,1,2.6c-0.3,0.4-0.7,0.8-0.8,1.4c2,1.4,2.4,5.1,3.7,6.7c-0.7-0.1-0.9,0.2-1.2,0.5c0.1,1.6,1.6,1.9,1.2,3.9
		c-0.5,0.5-1,0.9-1.3,1.5c-1-0.3-1.9,0-2.8,0.2c-1.2,2.1-3.7,3-5.5,4.6c-2.2,2-3.9,4.4-6.3,6.4c0.1,2.2,1.1,3.6,0,5.5
		c0.3,0.6,1.4,1.2,1.2,1.8c-0.9-0.4-1.6-0.7-3-0.9C5.9,44.3,6,44.9,6,45.3c-1.8,0.9-2.4,2.8-3,4.9c-0.6,0-1,0.3-1.5,0.4
		c-0.4,0.8-0.6,1.8-0.5,3c1,0.1,1.5,0.8,1.6,1.7v0.2c0.3,0.2,0.3,0.7,0.5,0.9h1.3c0.2,0.7,0.6,1.2,0.7,2c0.6,0.5,2.5,0,2.5,1.1
		c0.6,0.5-0.8,0.7-0.2,1.2c1.4,0.4,3-0.2,3.7-1.5c1,0.7,1.8,1.6,3,2.1c1.3-0.7,3.1,0.4,4,1.1c0.4-0.1,0.9-0.3,1.5-0.3
		c1.6,1.5,3.2,0.3,5.6,0.4c0.6,1.6,2.3,2.1,3,3.5c1,0.2,1.3,0.2,2.5,0.1c1-0.9,1.1-2,2.3-2.4c1.4-0.5,3.1,0.1,4.8,0
		c1.4-0.1,2.9-0.9,4.3-0.5c0.7-0.9,1.4-1.7,1.8-2.9c2,0,2.1-0.6,4.5-0.6c0.5-0.4,0.6-1.3,0.8-2c0.6,0.2,0.7,0.8,1.5,0.8
		c0.7,0.1,0.4-0.6,1-0.6c0.4,0.3,0.9,0.5,1.7,0.5c1.2-1.4,3.1-1.1,5.5-0.9c0.7,0.9,1.3,1.8,2.6,2.1c0,0.4,0,0.7,0.2,0.9
		c1.1-0.3,1,0.5,1.7,0.6c0.5-0.1,0.5-0.5,1.2-0.5c0.1,0.7-0.8,0.4-0.7,1.1c0.3,0.3,0.6,0.6,1.2,0.3c-0.1,0.7,0.3,1,0.8,1.1
		c0.5-0.3,0.4-1.1,1.2-1.2c0.8,0,1.5,0.3,2.2,0.4c0.2,1.6,1.6,3.6,3.5,2.3c0.7,0.6,0.1,1.3,0.2,2c0.1,0.3,0.5,0.5,0.5,0.9
		c-0.1,1.7-1.9,3.3-0.7,4.6c2.2-0.2,1.6,2.2,3.3,2.4c0.5-0.1,0.4-1.2,1-0.8c0.1,0.9-1,1.4-0.3,2.3c-0.6,0.2-0.9,0.4-0.7,1.1
		c0,0.5,1,0.1,1.2,0.5c-0.5,0.3-0.3,1.1-0.3,1.8c1.3,0.7,2.8,1.1,3.8,2c-0.1,1.6,0.3,2.9-0.5,3.7c0.4,0.9,1.5,1.1,2,1.8
		c-0.8,0-1.8-0.1-2.1,0.3c-0.1-0.9-0.7-1.4-1.5-1.7c-0.3,0.5-0.9,0.7-1.2,1.4c-0.8-0.3-0.7-1.4-1.5-1.7c-0.8,0.6-1.4,0.3-2.2,0.5
		c0-0.5-0.2-0.8-0.5-1.1c-1.3-0.2-2.6,0.8-3.5,1.4c0.1,1.9,0,3,1,4c-0.5,0.5-1.1,1.2-0.7,2.1c-0.7,0.3-1.7,0.4-2.3,0.8
		c0.2,2.3-1.9,2.6-3,3.8c0,1.1,0.9,1.7,0,2.4c-1.3-0.3-3.2-0.6-3.3,0.9c1.1,0.7,0.9,2,2,2.7c1.2,0.8,3,0.9,4.8,1.4
		c0.3-0.3,0.1-1.1,0.2-1.7c0.6,0.2,0.5,0.9,1.3,0.8c1.6-1.5,6.1-3.4,7.6-0.6c0.1,1-0.4,1.7,0.3,2.1c1.4-0.7,2.4-4.3,0.2-4.9
		c0.4-0.7-0.9-1.8-0.2-2.9c0.1,1,0.8,1.4,1.7,1.7c0-0.6,0.9-0.5,1-1.1c-0.1-0.4-0.4-0.5-0.5-0.9c0.4,0,0.5,0.3,1,0.2
		c0.3-0.5,0.2-1.4,0.8-1.5c2.3,1.2,3.8-2,5.1-3.5c0-0.6-1-1-0.7-1.4c0.4,0.3,0.6,0.6,1.2,0.8c1.4-0.9,1.8-2.8,3-3.9
		c0-0.9,0.2-1.3,0-2.1c2,0,3.6-1.8,5.5-0.6c0.8-0.1,1-0.6,1.7-0.8c0.3,0.3,0.8,0.4,1.2,0.6c0.3-0.2,0.3-0.7,0.8-0.8
		c0.5,0.3,1.2,0.4,1.8,0.6c0.5-0.3,1.1-0.5,1.3-1.1c1,1.9,3.4,0.9,4.6,2.1c-0.3,0.9-1.2,0-2-0.1c-1.9-0.4-4.1-0.1-5.1-0.8
		c-0.8,0.4-1.7,0-2.2,0.1c-0.2,0.7,1,1.5,1.7,2c0.7,0.1,0.4-0.6,1-0.6c0.8,0.5,2,0.6,2.7,0.9c-0.5,1.3-3-0.2-2.8,1.8
		c0.4,0.5,1.5,0.3,2,0c2.1,1.1,3.6,2.8,6.5,3.2c2-1.5,5.8-0.4,7.3-1.7c1.4,0.3,1.6,1.6,3.5,1.5c0.3-0.3,0.2-0.9,0.5-1.1
		c-0.1,1.1,0.3,1.6,0.5,2.4c0.4,0.2,0.8-0.3,0.8,0c-1.4,0.9-3.5,1.3-4.6,2.4c-0.4-0.1-0.5-0.4-0.8-0.1c-0.4,1.2-2.2,1.1-3.3,2
		c-0.3,0.2-0.5,0.8-0.8,1.1c-1.2,0.9-3.8,1.3-3.3,3.5c0.5,0.4,1.1,0.8,2.2,0.8c3.3-2.7,4.9,3.1,8,1.2c1.8,0.8,2.8,2.1,2.2,3.9
		c-0.2,0.6-1,0.8-1.2,1.4c-0.2,0.8,0.7,1.7,0.3,2.6c-0.8,0.4-1.7,0.6-2,1.4c0.7,0.8,1.4,1.6,3.1,1.5c0.4,2.1,3.3,1,4.6,1.7
		c0.8-0.7,1.9-0.5,2.6-1.1c0.9-0.6,1.1-2.2,2.6-2.1c0.3-3.2,3.5-3.8,5.6-5.3c1.4,0.1,2.2-0.5,3-1.1v-0.3c0.1-0.3,0.8-0.1,1.2-0.2
		c0-3.3,3.9-2.8,5.1-0.9c1.9,0,2.5-1.3,4.3-0.5c0.5-0.8,2.2-0.6,2.6-1.5c-1.1-0.8-0.6-2.7,0.2-3.5c1.2,0.1,1.8,0.2,2-0.9
		c-1.1-1.5-4.7-1.2-7.1-1.1c-0.4,0.5-0.4,1.2-1,1.5c-1,0-0.9-1.1-1.6-1.4c-1,1.5-2.5,2.6-4.6,3.2c-1.3-0.9-3-0.6-3.8-1.7
		c1.5-2.3-1.3-4.2-3.5-4.6c0.2-1,1.7-0.9,1.8-2c-0.7-1.2-1.6-3.5-1-4.9c2,0.6,2.4-1.4,3.5-2.1c0.3,0.4,0.8,0.6,1.5,0.6
		c0.7-1,1.4-2,2.8-2.4c0.8-1.5,2.9-3.3,5.1-3c0.8,0.1,0.9,0.9,1.7,0.6c0.7-1.7,3.6-3.1,5.6-1.8c0.6-1.8,2.4-2.6,4-3.5
		c0.5,0.1,0.6,0.6,1.3,0.5c0.7-0.9,1.2-1.9,1.8-2.9c1.7,0.5,3.5-0.6,5.6-0.6c-0.1,0.5,0,0.9,0.7,0.8c0.6-0.5,0.6-1.5,1.5-1.8
		c-0.6,0.1-0.8-0.2-0.8-0.6c0.1-0.8,1-0.9,1-1.8c-0.1-0.3-1.1,0.1-1.2-0.3c0.8-0.9,0.1-2.5,0.5-3.8c1.6-0.5,3.3-0.9,4.3-2
		c0.4-0.6,0.1-1.9,0.8-2.3c3.4-0.2,5.6-0.1,9.3-0.4C184,58.9,183.3,57.5,184,55.3"/> -->
	<path class="st1" d="M125.8,117.3l-0.6-0.3c-0.3-0.1-0.9-0.2-1.4-0.2c-1.1,0-2.8-0.1-3.5-1.4c-1.7-0.1-2.5-1-3.2-1.9l-0.4-0.5
		l0.2-0.6c0.4-0.9,1.2-1.4,2-1.7c0-0.1-0.1-0.3-0.1-0.4c-0.2-0.5-0.4-1-0.2-1.7c0.1-0.7,0.6-1.1,1-1.3c0.1-0.1,0.2-0.2,0.3-0.2
		c0.2-0.7,0.3-1.6-1.2-2.5c-1.8,0.8-3.3-0.3-4.3-1.1c-1.4-1.1-2-1.3-3-0.5l-0.3,0.2l-0.3,0c-1.4,0.1-2.2-0.4-2.9-1l-0.3-0.2
		l-0.1-0.3c-0.5-2.4,1.5-3.3,2.7-3.9c0.4-0.2,0.8-0.4,1-0.6c0,0,0.2-0.2,0.2-0.3c0.1-0.2,0.3-0.5,0.6-0.7c0.6-0.5,1.3-0.7,1.9-0.9
		c0.7-0.2,1-0.4,1.1-0.6l0.1-0.2l0.2-0.2c0.2-0.2,0.7-0.6,1.4-0.3c0.7-0.5,1.6-0.9,2.4-1.2c0.2-0.1,0.3-0.1,0.5-0.2
		c0-0.1,0-0.1-0.1-0.2c0,0,0,0,0,0c0,0,0,0-0.1,0c-1.3,0-2-0.6-2.6-1c-0.2-0.2-0.4-0.3-0.6-0.4c-0.9,0.5-2.1,0.6-3.4,0.6
		c-1.3,0.1-2.7,0.1-3.4,0.7l-0.3,0.3l-0.4-0.1c-2.2-0.3-3.6-1.2-5-2.2c-0.5-0.3-0.9-0.6-1.4-0.9c-0.8,0.3-2.1,0.4-2.7-0.5l-0.2-0.2
		l0-0.3c-0.1-0.5,0-0.9,0.2-1.2c0,0-0.1,0-0.2,0l-0.2,0L98.7,87c-0.6-0.5-1.5-1.1-1.8-2c-0.3,0.2-0.6,0.3-1.1,0.4l-0.3,0l-0.3-0.2
		c-0.7-0.5-1.3-0.3-2.4,0.2c-0.4,0.2-0.9,0.3-1.4,0.5c0,0.2,0,0.4,0,0.6c0,0.2,0,0.4-0.1,0.7l0,0.4l-0.3,0.3c-0.4,0.4-0.8,1-1.1,1.6
		c-0.5,0.8-1,1.8-2,2.4l-0.1,0l0,0.1l-0.3,0.3c-0.3,0.3-0.5,0.7-0.8,1.1c-1.1,1.4-2.6,3.5-4.7,3c-0.1,0.2-0.1,0.5-0.3,0.8l-0.2,0.4
		l-0.2,0.1c-0.1,0.7-0.7,1-1,1.2l0,1.1l-0.8-0.3c0.4,0.4,0.6,1,0.7,1.7c0.1,1.7-0.8,3.6-2,4.2l-0.5,0.2l-0.4-0.2
		c-1.1-0.6-1-1.6-0.9-2.2c0-0.2,0-0.4,0-0.5c-0.3-0.4-0.7-0.7-1.2-0.7c-1.6-0.2-3.8,0.9-4.7,1.7l-0.2,0.2l-0.3,0c-0.2,0-0.4,0-0.5,0
		c-0.1,0.2-0.2,0.4-0.4,0.6l-0.4,0.4l-0.6-0.1c-0.5-0.1-1-0.2-1.4-0.3c-1.4-0.3-2.7-0.5-3.7-1.2c-0.8-0.5-1.1-1.2-1.3-1.8
		c-0.2-0.5-0.3-0.8-0.6-0.9l-0.5-0.3l0-0.6c0.1-0.9,0.5-1.4,0.8-1.6c0.6-0.5,1.5-0.6,2.7-0.4c-0.1-0.3-0.2-0.8-0.2-1.3l0-0.4
		l0.2-0.3c0.4-0.5,1-0.8,1.4-1.1c1-0.6,1.4-1,1.3-1.9l0-0.6l0.5-0.3c0.5-0.3,1-0.4,1.5-0.5c0.1,0,0.1,0,0.2,0c0-0.6,0.3-1.1,0.5-1.5
		c-0.6-0.9-0.6-2-0.7-3.3l0-1.2l0.7-0.5c1-0.6,2.4-1.6,4-1.4l0.2,0l0.2,0.1c0.3,0.2,0.5,0.5,0.7,0.8c0.3,0,0.5,0,0.8-0.2l0.4-0.3
		l0.5,0.2c0.6,0.2,0.9,0.7,1.1,1c0,0,0,0,0,0c0.1-0.1,0.3-0.2,0.3-0.3l0.4-0.6l0.7,0.2c0.1,0,0.2,0.1,0.3,0.1l0.4-0.3
		c0.2-0.2,0.2-0.6,0.2-1.6c0-0.3,0-0.6,0-0.9c-0.5-0.4-1.2-0.7-1.9-1c-0.4-0.2-0.9-0.4-1.3-0.6l-0.6-0.3l0-0.6c0-0.1,0-0.3,0-0.4
		c0-0.2,0-0.4,0-0.7C75.2,78,75,77.7,75,77.3c-0.3-0.9,0-1.4,0.4-1.8c0,0,0-0.1,0-0.1c-1-0.3-1.4-1.1-1.7-1.6
		c-0.3-0.6-0.4-0.7-0.9-0.7l-0.5,0l-0.3-0.3c-1.3-1.2-0.6-2.8-0.2-3.8c0.2-0.5,0.4-0.9,0.5-1.4c0,0,0,0,0,0
		c-0.2-0.2-0.4-0.5-0.5-0.9c0-0.3,0-0.5,0-0.8c-0.5,0.1-1,0-1.4-0.2c-1.1-0.5-1.8-1.6-2.1-2.7c-0.4-0.1-0.7-0.2-1.1-0.2c0,0,0,0,0,0
		c-0.1,0.3-0.4,0.8-0.9,1.1L66,64.1l-0.3-0.1c-0.7-0.1-1.2-0.5-1.5-1c-0.5-0.1-0.9-0.5-1.1-0.7l-0.2-0.2l0-0.2
		c-0.4-0.1-0.6-0.4-0.8-0.5c0,0,0,0,0,0c0,0-0.1,0-0.1,0l-0.5,0.1L61,61.2c-0.3-0.3-0.4-0.6-0.5-0.9c-1-0.4-1.7-1.2-2.2-1.9
		c-2.2-0.2-3.4-0.3-4.2,0.6l-0.3,0.3l-0.4,0c-0.6,0-1.1-0.1-1.6-0.2c-0.3,0.3-0.7,0.4-1.2,0.4c-0.3,0-0.6-0.1-0.8-0.2
		c-0.2,0.4-0.4,0.8-0.8,1.2l-0.3,0.2l-0.4,0c-1.1,0-1.6,0.1-2.1,0.3c-0.5,0.1-0.9,0.3-1.7,0.3c-0.4,0.9-1,1.6-1.5,2.2l-0.6,0.8
		l-0.6-0.2c-0.7-0.2-1.5,0-2.3,0.2c-0.5,0.1-1.1,0.3-1.7,0.3c-0.8,0.1-1.6,0-2.3-0.1c-0.9-0.1-1.6-0.2-2.2,0c-0.4,0.1-0.6,0.4-1,0.9
		c-0.2,0.4-0.5,0.8-1,1.3l-0.3,0.3l-0.4,0c-1.3,0.1-1.6,0.1-2.8-0.2l-0.5-0.1l-0.2-0.4c-0.2-0.5-0.7-0.9-1.2-1.3
		c-0.5-0.5-1.1-1-1.5-1.7c-0.5,0-1,0.1-1.5,0.2c-1.2,0.2-2.6,0.4-3.8-0.6c-0.3,0-0.5,0.1-0.7,0.2L18,63.4l-0.5-0.3
		c-0.9-0.7-2.2-1.3-2.9-0.9l-0.4,0.2l-0.4-0.2c-1-0.4-1.7-1-2.4-1.6c0,0,0,0,0,0c-1.1,1.1-2.7,1.5-4.1,1L7,61.5l-0.2-0.1
		c-0.4-0.3-0.5-0.7-0.5-1c0-0.3,0.1-0.5,0.2-0.7c-0.1,0-0.2,0-0.3,0c-0.6,0-1.2-0.1-1.7-0.5l-0.3-0.3l0-0.4c0-0.3-0.1-0.5-0.3-0.8
		c0-0.1-0.1-0.1-0.1-0.2h-1l-0.3-0.3c-0.3-0.3-0.4-0.6-0.5-0.8c0,0,0,0,0-0.1L1.7,56v-0.6c-0.1-0.6-0.4-0.7-0.8-0.8l-0.8-0.1l0-0.8
		c-0.1-1.6,0.1-2.7,0.6-3.6l0.2-0.3l0.6-0.2c0.2-0.1,0.5-0.2,0.9-0.3c0.5-1.8,1.2-3.5,2.8-4.5c0-0.4,0.1-1,0.5-1.4L5.9,43l0.5,0.1
		c0.2,0,0.4,0.1,0.5,0.1l0-0.1l0.3-0.5c0.5-0.9,0.4-1.6,0.2-2.9c-0.1-0.6-0.3-1.3-0.3-2l0-0.5l0.4-0.3c1.2-1,2.3-2.2,3.4-3.4
		c0.9-1,1.8-2,2.9-3c0.7-0.6,1.5-1.2,2.3-1.7c1.2-0.8,2.3-1.5,3-2.7l0.2-0.4l0.5-0.1c0.2,0,0.4-0.1,0.5-0.1c0.6-0.1,1.3-0.3,2-0.2
		c0.3-0.3,0.6-0.6,0.8-0.9c0-0.5-0.2-0.9-0.4-1.3c-0.3-0.5-0.7-1.1-0.8-2.1l0-0.4l0.2-0.3c0.1-0.1,0.2-0.3,0.4-0.5
		c-0.2-0.5-0.5-1.1-0.7-1.7c-0.5-1.4-1.1-2.9-2-3.5l-0.6-0.4l0.1-0.7c0.1-0.6,0.5-1.1,0.7-1.4c-0.1-0.2-0.2-0.3-0.3-0.5
		c-0.3-0.5-0.8-1.2-0.6-2c0.2-0.8,0.7-1.4,1.5-1.7c1.2-0.4,2.8,0,3.9,0.6c0.3-0.1,0.6-0.4,0.9-0.6c0.2-0.2,0.5-0.4,0.8-0.6
		c0-0.2,0-0.5,0.1-0.7l0.1-0.2c0.9-1.8,3-1.7,5-1.5c1,0.1,2,0.1,2.9,0c0.4,0,0.8-0.2,1.2-0.3c0.4-0.2,0.9-0.3,1.3-0.3
		c0.9,0,1.7,0.3,2.4,0.6c0.6,0.2,1.1,0.4,1.6,0.5c0.5,0,1,0,1.5-0.1C43.1,5.5,44,5.4,45,5.7l0.2,0.1l0.4,0.4
		c0.5,0.5,0.9,0.7,1.8,0.6c0.9-0.1,1.3,0.4,1.5,0.7c1.4-0.1,2.3,0.4,3,0.7c0.2,0.1,0.5,0.2,0.7,0.3c0.2,0,0.4-0.1,0.6-0.1
		c0.7-0.1,1.4-0.3,2.4,0l0.8,0.2l-0.1,0.8c0,0.2,0,0.3,0.3,0.6c0.2,0.2,0.3,0.4,0.5,0.6c1.2-0.3,2.2,0,3.3,0.4
		c0.2-0.2,0.5-0.3,0.8-0.4l0.7-0.1l0.4,0.6c0.2,0.3,0.7,0.4,1,0.4c0.2,0,0.5-0.1,0.6-0.4l0.3-0.9l0.9,0.3c0.8,0.2,1.3,0.7,1.7,1.2
		c0.7-0.1,1.4,0,2,0.1c0.2,0,0.3,0.1,0.5,0.1l0.7,0.1l0.1,0.3c0,0,0,0,0,0l0.4-0.5l0.6,0.1c0.5,0.1,0.5,0.1,0.7-0.2
		c0.3-0.4,0.9-1.1,2.3-0.8c1.4,0.3,1.7,1.6,2,2.6c0.1,0.3,0.1,0.6,0.2,0.9c0.3-0.1,0.4-0.2,0.7-0.4c0.4-0.3,1.1-0.8,2-0.9
		c0.5-0.1,1,0,1.5,0.5c1.6-0.6,3.6-0.5,4.9,0.3c0.3,0.2,0.5,0.3,0.7,0.5c-0.1-0.7-0.1-1.5,0.1-2.3c0.4-2.1,1.8-4.2,3.6-5.6
		c0-0.5,0-1,0.5-1.5l0.4-0.4l0.5,0.1c0,0,0.1,0,0.3,0c0.3-0.1,0.7-0.2,1.2-0.1c0,0,0.5,0.1,1.1,0.3c0.3-0.2,0.6-0.6,1.1-0.7
		c1-0.3,1.9-0.1,2.8,0c0.7,0.1,1.4,0.2,2.2,0.1c0.7-0.1,1.2,0.2,1.5,0.8c0.5,0,0.8-0.1,1.1-0.2c0.7-0.6,0.8-2.3,0.8-2.8l0-0.9
		l0.9-0.1c1.7-0.2,2.9,0.2,3.9,0.5c0.5,0.2,1,0.3,1.5,0.4c0.7-0.5,1.4-1,2.2-1.5l0.6-0.4l0.5,0.2c0.2,0.1,0.7,0,1,0
		c0.6,0,1.4,0,2,0.3c2.2-1.3,4.2,0.6,5.3,1.7c0.3,0.3,0.5,0.5,0.8,0.7l0.4,0.4l-0.1,0.6c-0.3,1.7,0.6,2.3,1.8,3.1
		c0.5,0.3,0.9,0.6,1.4,1l0.3,0.3v2.7l-0.7,0.2c-0.4,0.1-0.8,0.2-1.3,0.3c-0.1,0-0.2,0-0.3,0.1c0.4,0.6,0.9,1.4,0.8,2.2
		c0.3,0.1,0.6,0.3,0.7,0.7l0.1,0.2v0.2c0,0.2,0,0.3,0,0.5c1.1,0,2.4,0.2,3.1,1c0.3,0,0.6-0.1,1-0.3c0.7-0.2,1.6-0.6,2.9-0.3l0.5,0.1
		l0.2,0.4c0.2,0.4,0.3,0.9,0.3,1.3c0,0,0,0,0,0c0.6-0.1,1,0,1.8,0.4l0.5,0.2l0.1,0.5c0.2,0.8-0.2,1.3-0.4,1.6
		c0.1,0.2,0.3,0.5,0.5,0.7c0.6,1,1.6,2.5,0.7,4c0,0,0,0,0,0c0.1,0.3,0.2,0.5,0.3,0.9c0.5,0.2,1,0.6,1.5,1.2c1.1-0.8,2.5-1.3,4.7-1
		l0.4,0l0.2,0.3c0.4,0.4,0.7,0.8,1.1,1.2c0.9-0.3,1.9,0,2.7,0.5c0.8-0.8,2.1-1.1,3.2-1.4c1.1-0.3,2.2-0.6,2.5-1.2l0.3-0.5h3l0.3,0.6
		c0.1,0.3,0.3,0.6,0.4,0.9c0,0,0,0,0,0c0.4,0,0.9,0.1,1.3,0.3l0.3,0.2l0.1,0.4c0.1,0.6,0,1-0.1,1.3c0,0,0,0,0,0
		c0.6,0.8,1,1.2,1.9,1.2l0.3,0l0.2,0.2c0.3,0.2,0.5,0.5,0.7,0.7c0-0.2,0-0.4,0.1-0.6l0.2-0.5l0.7-0.2c0.5-0.2,1.2-0.4,2.2-0.3l0.2,0
		l0.2,0.1c0.5,0.3,0.7,0.7,0.8,1.1c0.2,0,0.4,0,0.6-0.1c0.5-0.1,1-0.1,1.7-0.1l0.6,0.1l0.2,0.6c0.1,0.2,0.6,0.4,1.1,0.6
		c0.4,0.1,0.8,0.3,1.2,0.5c0.3-0.4,0.8-1.1,2-0.9l0.3,0.1c0.7,0.3,1.1,0.9,1.3,1.4c0,0,0,0.1,0,0.1c0.8-0.3,1.4-0.2,2.1,0
		c0.2,0,0.5,0.1,0.8,0.1l0.4,0.1l0.2,0.3c0.3,0.4,0.4,0.8,0.5,1.1c0,0.1,0,0.1,0.1,0.2c0.1,0,0.1,0,0.2,0c0.3,0,0.7,0.1,1.1,0.3
		c0.1,0,0.1-0.1,0.2-0.1c0.8-0.5,1.9-1.3,3.6-0.5l0.6,0.3l0,0.6c0,0.7-0.3,1.2-0.6,1.6c0,0-0.1,0.1-0.1,0.1c0.1,0.3,0.3,0.6,0.6,0.8
		c0.5,0.5,1.1,1.2,0.9,2.5c-0.1,0.9-0.7,1.5-1.3,2c-0.5,0.5-0.9,0.9-0.9,1.3l0,0.8c0,0,0.1,0,0.1,0c0.3,0,0.6-0.1,0.8-0.1l0.6,0
		l0.3,0.5c0.5,0.9,0.4,1.9-0.2,2.6c-0.7,0.8-1.9,1.1-3,0.9c-0.1,0.2-0.1,0.5-0.2,0.7c0.2,0,0.4,0,0.6,0l1.3,0l-0.1,1.1
		c0,0.3,0.2,0.7,0.4,1.1c0.2,0.4,0.5,0.8,0.6,1.4c0.4,0.1,0.8,0.4,0.9,0.6l0.1,0.1c0.9,1.5-0.3,2.5-0.8,2.9
		c-0.2,0.8-0.2,1.5-0.2,2.2c0,1,0,2-0.5,3.2l-0.2,0.6l-0.6,0.1c-2.5,0.2-4.3,0.3-6.2,0.3c-0.8,0-1.7,0.1-2.6,0.1
		c0,0.1,0,0.3-0.1,0.4c-0.1,0.5-0.1,1-0.4,1.4l-0.1,0.1c-1.1,1.1-2.6,1.6-4.2,2.1c0,0.3,0,0.6,0,0.9c0,0.4,0.1,0.9,0,1.4
		c0.3,0.1,0.5,0.3,0.7,0.7l0.1,0.2l0,0.2c0,0.6-0.2,1-0.4,1.3l-0.2,1l-0.3,1.1c-0.1,0-0.2,0.2-0.4,0.5c-0.2,0.4-0.4,0.8-0.8,1.1
		l-0.2,0.2l-0.3,0c-0.7,0.1-1.2-0.1-1.4-0.4c-0.1-0.1-0.2-0.2-0.3-0.3c-0.5,0.1-1.1,0.2-1.6,0.3c-0.9,0.2-1.8,0.4-2.7,0.3
		c-0.1,0.2-0.2,0.4-0.3,0.6c-0.4,0.6-0.7,1.2-1.2,1.8l-0.2,0.3l-0.4,0.1c-0.7,0.1-1.2-0.1-1.5-0.3c0,0-0.1,0-0.1,0.1
		c-1.3,0.7-2.5,1.4-2.9,2.6l-0.4,1.2l-1.1-0.7c-0.8-0.5-1.7-0.4-2.2-0.2c-0.9,0.3-1.7,0.9-2,1.6l-0.2,0.4l-0.5,0.1
		c-1,0.3-1.5-0.2-1.8-0.4C147,82,147,82,146.9,82c-1.8-0.2-3.5,1.4-4.2,2.5l-0.2,0.4l-0.4,0.1c-1,0.3-1.5,1-2.3,2l-0.3,0.5l-0.6,0
		c-0.5,0-1-0.1-1.3-0.3c-0.1,0.1-0.1,0.2-0.2,0.3c-0.5,0.6-1.3,1.6-2.6,1.7c0,0.9,0.5,2.3,1.1,3.3l0.2,0.3l0,0.3
		c-0.1,0.7-0.5,1.1-0.9,1.4c1.2,0.5,2.2,1.4,2.7,2.5c0.2,0.5,0.4,1.3,0.1,2.2c0.2,0.1,0.6,0.2,0.9,0.3c0.6,0.1,1.2,0.3,1.8,0.6
		c1.6-0.5,2.8-1.4,3.7-2.7l0.5-0.7l0.8,0.3c0.5,0.2,0.8,0.6,1,0.9c0.1-0.2,0.2-0.5,0.4-0.8l0.3-0.4l0.5,0c3.3-0.2,6.6-0.3,8,1.5
		l0.3,0.3l-0.1,0.4c-0.2,1.7-1.5,1.9-2.5,1.8c-0.2,0.3-0.3,0.7-0.3,1.1c0,0.4,0.2,0.5,0.2,0.5l0.6,0.5l-0.4,0.7
		c-0.4,0.9-1.3,1.1-2,1.3c-0.3,0.1-0.7,0.2-0.8,0.3l-0.5,0.6l-0.8-0.3c-0.7-0.3-1-0.2-1.7,0.1c-0.6,0.2-1.3,0.5-2.2,0.5l-0.5,0
		l-0.3-0.4c-0.5-0.8-1.7-1.2-2.5-1c-0.3,0.1-0.8,0.3-0.8,1.3l0,0.8l-0.8,0.2c-0.2,0-0.3,0.1-0.5,0.1l-0.4,0.3
		c-0.8,0.6-1.7,1.2-3.3,1.2c-0.5,0.3-1.1,0.6-1.6,0.9c-1.9,1-3.1,1.7-3.3,3.5l-0.1,0.9l-0.9,0c-0.4,0-0.6,0.2-1,0.8
		c-0.3,0.4-0.6,0.8-1,1.1c-0.5,0.4-1.1,0.5-1.5,0.6c-0.4,0.1-0.8,0.2-1,0.4L125.8,117.3z M121.8,113.4l0.2,0.9
		c0.1,0.5,0.3,0.6,1.8,0.6c0.6,0,1.1,0,1.7,0.2c0.5-0.3,0.9-0.4,1.4-0.5c0.4-0.1,0.7-0.2,0.9-0.3c0.2-0.1,0.4-0.4,0.5-0.6
		c0.4-0.5,0.9-1.3,1.8-1.6c0.6-2.3,2.5-3.4,4.2-4.3c0.6-0.3,1.2-0.6,1.7-1l0.3-0.2l0.3,0c0.9,0,1.4-0.2,2-0.6
		c0.1-0.6,0.5-0.9,1.2-0.9c0.3-1.1,1-1.9,2.1-2.2c1.5-0.4,3.3,0.1,4.4,1.3c0.4-0.1,0.7-0.2,1-0.3c0.7-0.3,1.5-0.6,2.6-0.3
		c0.4-0.3,0.8-0.4,1.2-0.5c0.1,0,0.2-0.1,0.3-0.1c-0.1-0.3-0.2-0.6-0.2-1c-0.1-1,0.3-2.3,1.1-3l0.3-0.3c-1.3-0.2-2.9-0.1-4.1,0
		c0,0,0,0,0,0.1c-0.2,0.4-0.5,1-1.1,1.4l-0.2,0.1l-0.3,0c-0.8,0-1.3-0.4-1.6-0.8c-1.1,1.3-2.6,2.1-4.4,2.6l-0.5,0.1l-0.4-0.3
		c-0.4-0.3-0.9-0.4-1.5-0.6c-0.9-0.2-1.8-0.4-2.5-1.3l-0.4-0.6l0.4-0.6c0.4-0.6,0.3-0.9,0.2-1.2c-0.3-0.8-1.7-1.6-3-1.9l-1-0.2
		l0.2-1c0.2-1,0.9-1.4,1.4-1.7c0.1,0,0.2-0.1,0.3-0.2c-0.6-1.3-1.5-3.6-0.8-5.2l0.4-0.8l0.9,0.3c0.6,0.2,0.8,0,1.5-0.8
		c0.3-0.4,0.7-0.9,1.2-1.2l0.7-0.5l0.6,0.7c0.1,0.1,0.2,0.1,0.3,0.2c0.6-0.8,1.4-1.7,2.6-2.2c1.2-1.8,3.5-3.5,5.9-3.2
		c0.5,0,0.8,0.2,1.1,0.4c0.6-0.9,1.6-1.6,2.8-1.9c1-0.3,2-0.3,2.9,0c0.8-1.3,2.2-2.1,3.4-2.7l0.9-0.5l0.4,0.1
		c0.3,0.1,0.5,0.2,0.7,0.3c0.2-0.4,0.4-0.7,0.7-1.1c0.2-0.4,0.5-0.8,0.7-1.2l0.4-0.6l0.7,0.2c0.7,0.2,1.5,0,2.5-0.2
		c0.9-0.2,1.8-0.4,2.9-0.4l0.4,0c-0.1-0.2-0.1-0.4-0.1-0.6l0-0.1l0-0.1c0-0.5,0.2-0.8,0.4-1c-0.2-0.1-0.5-0.3-0.6-0.7l-0.1-0.5
		l0.4-0.4c0.2-0.2,0.2-0.6,0.1-1.3c0-0.7-0.1-1.4,0.2-2.1l0.2-0.5l0.6-0.2c1.4-0.4,2.9-0.8,3.7-1.6c0-0.1,0.1-0.4,0.1-0.5
		c0.1-0.6,0.2-1.6,1.1-2l0.2-0.1l0.2,0c1.1-0.1,2.1-0.1,3.1-0.1c1.7-0.1,3.4-0.1,5.5-0.3c0.2-0.6,0.2-1.2,0.2-1.9
		c0-0.9,0-1.9,0.4-3.1l0.1-0.3l0.1-0.1c0,0-0.1,0-0.1,0l-1.7-0.3l1.1-1.3c0.2-0.2,0.2-0.3-0.2-1.1c-0.2-0.4-0.4-0.8-0.6-1.2
		c-0.6,0-1.2-0.2-1.7-0.6l-0.2-0.2l0-0.3c-0.1-1.6,0.3-2.8,1.2-3.5l0,0c-0.9-0.2-1.7-0.7-1.9-1.9l-0.3-1.3l1.3,0.1
		c0.2,0,0.3,0,0.5-0.2c0.2-0.1,0.4-0.2,0.7-0.3c0.3-0.8,0.9-1.4,1.3-1.8c0.3-0.3,0.7-0.7,0.7-0.9c0.1-0.4,0-0.4-0.4-0.9
		c-0.3-0.4-0.8-0.9-1-1.7c-0.2-0.5-0.1-0.9,0.1-1.2c-0.2,0.1-0.4,0.2-0.6,0.4c-0.3,0.2-0.6,0.4-1,0.6l-0.8,0.3l-0.3-0.6
		c-0.1,0-0.3-0.1-0.4-0.1c-0.3,0-0.6-0.1-1-0.2l-0.2-0.1l-0.2-0.2c-0.3-0.4-0.4-0.8-0.5-1.1c0,0,0-0.1,0-0.1c-0.2,0-0.3-0.1-0.4-0.1
		c-0.7-0.1-0.8-0.2-1.3,0.2l-0.5,0.3l-0.5-0.3c-0.7-0.3-1-0.9-1.2-1.4c0-0.1-0.1-0.2-0.1-0.3c-0.2,0.3-0.7,1-1.8,1l-0.4,0l-0.3-0.3
		c-0.2-0.2-0.6-0.3-1-0.5c-0.6-0.2-1.5-0.5-2-1.1c-0.3,0-0.5,0-0.8,0.1c-0.5,0.1-1,0.1-1.7,0.1l-0.4,0l-0.3-0.4
		c-0.2-0.3-0.3-0.6-0.3-0.8c-0.1,0-0.2,0-0.3,0c0.1,0.4,0.4,1.6-0.8,2.2l-0.1,0c-1.4,0.4-2.1-0.6-2.5-1.2c-0.1-0.1-0.2-0.2-0.3-0.3
		c-1.8-0.2-2.7-1.3-3.3-2.2l-0.3-0.4V29c0-0.2,0-0.4,0.1-0.6c-0.3,0-0.6-0.1-0.9-0.2l-0.4-0.2l-0.1-0.4c-0.1-0.2-0.1-0.4-0.2-0.6
		h-0.6c-0.8,1-2.2,1.3-3.4,1.6c-1.4,0.4-2.4,0.7-2.6,1.4l-0.6,1.6l-1.1-1.3c-0.3-0.3-1.2-1.1-1.8-0.6l-0.8,0.6l-0.6-0.8
		c-0.4-0.5-0.7-1-1.2-1.5c-2-0.2-2.9,0.6-3.8,1.3l-1.2,1l-0.4-1.5c-0.2-0.8-0.6-1.1-1.2-1.3l-0.8-0.2l0-0.8c0-0.3-0.1-0.6-0.2-0.9
		c-0.1-0.2-0.2-0.4-0.2-0.6l-0.2-0.6l0.4-0.4c0.3-0.3,0.3-0.7-0.6-2c-0.4-0.5-0.7-1.1-0.8-1.6l-0.1-0.2l0-0.2c0-0.2,0.1-0.4,0.2-0.6
		c-0.2,0-0.3,0.1-0.6,0.1l-0.6,0.1l-0.4-0.5c-0.4-0.5-0.4-1.1-0.5-1.5c0,0,0-0.1,0-0.1c0,0,0,0,0,0c-0.5,0-0.8,0.1-1.3,0.3
		c-0.6,0.2-1.3,0.5-2.3,0.4l-0.7,0l-0.2-0.6c-0.3-0.2-1.6-0.4-2.8-0.3l-1.1,0.1v-1.1c0-0.3,0-0.5,0.1-0.7c-0.5-0.1-0.8-0.4-0.9-0.8
		l-0.1-0.5l0.3-0.4c0.3-0.3,0.2-0.6-0.7-1.6c-0.2-0.2-0.4-0.5-0.5-0.7l-0.6-0.9l1-0.5c0.6-0.3,1.4-0.5,2.1-0.6c0.1,0,0.2,0,0.3-0.1
		V9.3c-0.2-0.2-0.5-0.4-0.8-0.6c-1.2-0.8-2.9-1.9-2.7-4.5c-0.2-0.2-0.3-0.3-0.5-0.5c-1.7-1.6-2.4-2-3.4-1L114.8,4l-0.2-1.7
		c-0.2,0-0.6,0-0.9,0c-0.4,0-0.9,0-1.3,0c-0.7,0.5-1.5,1.1-2.3,1.6L109.8,4l-0.3,0c-0.9,0-1.6-0.3-2.3-0.5c-0.7-0.2-1.4-0.4-2.2-0.5
		c-0.1,1.2-0.5,2.6-1.5,3.4c-0.8,0.6-1.8,0.8-3.1,0.6l-0.2,0L100,6.9c-0.2-0.2-0.4-0.4-0.5-0.6c-0.9,0-1.6-0.1-2.3-0.2
		c-0.8-0.1-1.4-0.2-2,0c0,0-0.2,0.1-0.2,0.2c-0.1,0.1-0.2,0.2-0.3,0.3l0,0.3L93.8,7c0,0,0,0,0,0l-0.1-1l-0.6,0.8
		c-0.1-0.1-0.5-0.2-0.6-0.2c-0.2,0-0.4,0-0.6,0.1c-0.1,0-0.1,0-0.2,0c0,0.1,0,0.2,0,0.3l0,0.5l-0.4,0.3c-1.6,1.1-2.9,2.9-3.2,4.6
		c-0.2,1.2,0,2.4,0.7,3.4l0.4,0.6L88.6,17c-0.2,0.2-0.3,0.3-0.5,0.5c-0.1,0.1-0.2,0.1-0.2,0.2l-0.9,0.1l-1.1,0.1
		c-0.3-0.1-0.6-0.2-0.9-0.5L84.9,17l0-0.4c0-0.5-0.2-0.9-0.6-1.1c-0.9-0.6-2.6-0.5-3.7,0.1l-0.4,0.2l-0.5-0.2
		c-0.4-0.2-0.6-0.4-0.7-0.7c-0.3,0.1-0.5,0.2-0.9,0.5c-0.5,0.4-1.3,1-2.6,0.9l-0.5,0l-0.3-0.4c-0.4-0.6-0.6-1.4-0.8-2
		c-0.1-0.4-0.3-1.1-0.4-1.1c-0.1,0-0.2,0-0.2,0c0,0-0.1,0.1-0.2,0.2c-0.3,0.4-0.8,1-2,1c-0.1,0.1-0.1,0.2-0.2,0.2
		c-0.3,0.4-0.5,0.9-1,1.2l-1.5,1.5l-0.2-2.1c0-0.4-0.1-0.7-0.2-1c-0.3-0.1-0.8-0.2-1-0.1l-0.8,1.6l-0.9-1.7
		c-0.2-0.3-0.3-0.6-0.5-0.8c-0.4,0.4-0.9,0.6-1.5,0.7c-0.7,0.1-1.3,0-1.9-0.3c-0.1,0.5-0.3,1.2-1.3,1.5l-1.7,0.5l0.5-1.7
		c0-0.2,0.1-0.3,0.2-0.5c0,0,0,0,0-0.1c-1-0.4-1.5-0.4-2.5,0.1l-1.4,0.7l0-1.6c0-0.2,0-0.2-0.3-0.5c-0.2-0.3-0.6-0.6-0.8-1.2
		c-0.3,0-0.5,0.1-0.8,0.1c-0.3,0.1-0.6,0.1-1,0.2l-0.2,0l-0.2-0.1c-0.5-0.1-0.9-0.4-1.2-0.5c-0.7-0.4-1.2-0.6-2.3-0.5l-0.2,0l-0.2,0
		c-0.5-0.1-0.8-0.5-1-0.7c-1.6,0.1-2.4-0.6-3-1.1l0,0c-0.6-0.1-1.2-0.1-1.9,0c-0.5,0.1-1.1,0.1-1.8,0.1c-0.8,0-1.5-0.3-2.2-0.6
		c-0.6-0.2-1.2-0.5-1.7-0.5c-0.1,0-0.4,0.1-0.6,0.2c-0.4,0.2-1,0.4-1.6,0.4c-1.1,0.1-2.3,0-3.2,0c-1.5-0.1-2.6-0.2-3,0.3
		c0,0,0,0,0,0c0.2,0.6,0.1,1.1-0.3,1.5l-0.3,0.2c-0.3,0.1-0.6,0.4-0.9,0.6c-0.5,0.4-1.1,0.9-2,1.1L24.1,11l-0.4-0.3
		c-0.6-0.5-1.8-0.8-2.5-0.6c-0.2,0.1-0.2,0.1-0.2,0.2c0,0.1,0.2,0.4,0.3,0.5c0.3,0.4,0.7,1,0.7,1.8l0,0.3l-0.2,0.3
		c-0.1,0.1-0.2,0.3-0.3,0.4c0,0.1-0.1,0.1-0.1,0.2c1,1,1.6,2.6,2.1,3.9c0.4,1,0.7,1.9,1.1,2.4l1.7,2.1l-2.5-0.5
		c0.1,0.2,0.2,0.3,0.3,0.5c0.4,0.6,1,1.5,0.7,3.1l-0.1,0.3l-0.3,0.2c-0.5,0.5-0.9,0.9-1.1,1.3L23,27.8l-0.8-0.3
		c-0.5-0.2-1.1-0.1-1.7,0.1c-0.1,0-0.1,0-0.2,0c-0.9,1.3-2.2,2.1-3.4,2.9c-0.7,0.5-1.4,0.9-2,1.5c-1,0.9-1.8,1.8-2.7,2.8
		c-1,1.1-2,2.2-3.2,3.2c0.1,0.4,0.1,0.8,0.2,1.2c0.2,1.2,0.5,2.4-0.1,3.7c0,0,0.1,0.1,0.1,0.1c0.5,0.5,1.2,1.3,0.8,2.2l-0.4,1
		l-0.9-0.4c-0.5-0.3-1-0.4-1.7-0.6c0,0,0,0,0,0.1l0,0.6l-0.5,0.3c-1.4,0.7-2,2.4-2.5,4.2l-0.2,0.7l-0.8,0c-0.3,0-0.5,0.1-0.8,0.2
		C2.1,51.7,2,52.3,2,52.9c0.7,0.3,1.4,0.9,1.6,2.2c0.1,0.1,0.1,0.2,0.2,0.3h1.5l0.2,0.8c0,0.2,0.1,0.4,0.2,0.6C5.8,57,6,57.3,6,57.6
		c0.1,0,0.2,0,0.3,0c0.6,0,2,0.2,2.2,1.4c0.1,0.2,0.2,0.5,0.2,0.6c0,0,0,0.1,0,0.1c0.6-0.1,1.1-0.5,1.4-1.1l0.5-1l0.9,0.7
		c0.3,0.2,0.6,0.5,0.9,0.7c0.5,0.4,1,0.8,1.5,1.1c1.4-0.4,3,0.2,4.1,1c0.4-0.1,0.8-0.2,1.3-0.2l0.4,0l0.3,0.3
		c0.6,0.6,1.2,0.5,2.5,0.3c0.7-0.1,1.6-0.2,2.5-0.2l0.6,0l0.2,0.6c0.2,0.6,0.7,1,1.3,1.5c0.5,0.4,1,0.9,1.4,1.5
		c0.5,0.1,0.8,0.1,1.4,0.1c0.2-0.2,0.3-0.4,0.5-0.7c0.4-0.6,0.9-1.4,2-1.7c1-0.3,2.1-0.2,3.1-0.1c0.7,0.1,1.3,0.1,2,0.1
		c0.4,0,0.9-0.1,1.4-0.3c0.8-0.2,1.7-0.4,2.6-0.3c0.5-0.7,1-1.3,1.3-2.1l0.2-0.7l0.7,0c0.9,0,1.3-0.1,1.8-0.2
		c0.5-0.1,1.1-0.3,2.2-0.3c0.1-0.2,0.2-0.5,0.2-0.8c0-0.2,0.1-0.3,0.1-0.5l0.3-1l1,0.3c0.5,0.1,0.7,0.4,0.9,0.6c0,0,0.1,0.1,0.1,0.1
		c0.3-0.4,0.7-0.6,1.2-0.6l0.4,0l0.3,0.2c0.1,0.1,0.2,0.2,0.6,0.2c1.4-1.3,3.5-1.1,5.6-0.9l0.8,0.1l0.4,0.5c0.6,0.8,1.1,1.4,2,1.6
		l0.8,0.2l0,0.7c0.4,0.1,0.7,0.3,0.9,0.5c0.3-0.2,0.7-0.4,1.3-0.3l0.7,0.1l0.1,0.7c0,0.1,0,0.1,0,0.2l0.6-0.3l-0.1,0.8
		c0.2-0.2,0.5-0.3,0.8-0.3l0.1,0l0.1,0c0.9,0,1.6,0.2,2.2,0.4l0.8,0.2l0.1,0.6c0.1,0.8,0.6,1.6,1.1,1.8c0.1,0,0.4,0.2,0.8-0.2
		l0.7-0.5l0.6,0.6c0.9,0.8,0.6,1.7,0.5,2.2c0,0.1,0,0.1,0,0.2c0.2,0.2,0.5,0.6,0.5,1.2c0,0.8-0.4,1.6-0.7,2.3
		c-0.3,0.7-0.4,1-0.4,1.2c1.4,0.1,1.9,1.1,2.2,1.7c0.1,0.2,0.2,0.3,0.2,0.4c0.2-0.2,0.4-0.5,0.8-0.5c0.3-0.1,0.7-0.1,1.2,0.3
		l0.3,0.3l0,0.4c0.1,0.7-0.2,1.2-0.4,1.5c-0.1,0.1-0.1,0.2-0.1,0.3l0.7,1l-0.5,0.2c0.1,0.1,0.2,0.2,0.3,0.4l0.5,0.8l-0.7,0.4
		c0,0.1,0,0.3,0,0.4c0.2,0.1,0.4,0.2,0.7,0.3c1,0.4,2,0.9,2.8,1.6l0.4,0.3l0,0.5c0,0.4,0,0.8,0,1.2c0,0.8,0.1,1.6-0.3,2.3
		c0.1,0.1,0.2,0.1,0.3,0.2c0.4,0.3,0.9,0.6,1.2,1.1l0.9,1.5l-1.7,0.1c-0.2,0-0.5,0-0.7,0c-0.2,0-0.6,0-0.7,0l-1.4,1.9l-0.3-2.5
		c0-0.2-0.1-0.4-0.3-0.6c0,0-0.1,0.1-0.1,0.1c-0.2,0.2-0.3,0.3-0.4,0.4l-0.3,1l-1-0.4c-0.7-0.3-1-0.9-1.2-1.3c0,0,0-0.1,0-0.1
		c-0.5,0.2-0.9,0.2-1.3,0.2c-0.2,0-0.3,0-0.5,0l-1.2,0.2l0-1.2c0,0,0,0,0-0.1c-0.6,0.1-1.4,0.5-2,0.9l0,0.1c0,1.5,0.1,2.1,0.7,2.6
		l0.7,0.7l-0.7,0.7c-0.6,0.6-0.6,0.8-0.5,1l0.5,0.9l-0.9,0.5c-0.4,0.2-0.9,0.3-1.3,0.4c-0.2,0-0.3,0.1-0.5,0.1
		c-0.2,1.7-1.3,2.4-2.2,3c-0.3,0.2-0.5,0.3-0.7,0.5c0,0.1,0.1,0.2,0.1,0.4c0.2,0.5,0.6,1.6-0.5,2.5l-0.4,0.3l-0.5-0.1
		c-0.9-0.2-1.4-0.2-1.7-0.2c0.3,0.4,0.5,0.8,0.6,1.2c0.2,0.5,0.3,0.7,0.6,0.9c0.7,0.5,1.8,0.7,3,0.9c0.1,0,0.3,0.1,0.4,0.1
		c0-0.2,0-0.4,0-0.6l0.1-1.2l1.2,0.3c0.4,0.1,0.7,0.4,0.9,0.6c1.4-1.1,3.8-2.2,5.9-1.8c0.3,0.1,0.6,0.1,0.9,0.3l0.5-1
		c0-0.1-0.1-0.3-0.1-0.4c-0.3-0.6-0.7-1.7,0.1-2.7l1.6-2.2l0.2,2.7c0,0.2,0,0.3,0.3,0.5c0,0,0,0,0.1,0c-0.1-0.1-0.1-0.3-0.2-0.5
		l-0.2-1.2l1.2,0c0.1,0,0.2,0,0.3,0c0.1-0.5,0.5-1.2,1.3-1.4l0.4-0.1l0.3,0.2c0.9,0.4,1.6-0.3,3-2.1c0.2-0.2,0.3-0.4,0.5-0.6
		c-0.8-0.9-0.5-1.5-0.2-1.9l0.6-0.7l0.7,0.6c0.1,0.1,0.2,0.2,0.3,0.3c0,0,0.1,0.1,0.1,0.1c0.4-0.4,0.6-0.9,0.9-1.4
		c0.3-0.6,0.7-1.2,1.2-1.8c0-0.2,0-0.3,0-0.5c0-0.4,0.1-0.6,0-1L88.9,84l1.3,0c0.6,0,1.2-0.2,1.8-0.5c1.1-0.4,2.4-0.9,3.8-0.2
		c0.1,0,0.1-0.1,0.3-0.2c0.2-0.2,0.5-0.4,1-0.5l0.6-0.2l0.4,0.5c0,0,0,0,0.1,0c0.2-0.2,0.5-0.5,1-0.5l0.3,0l0.3,0.1
		c0.3,0.2,0.8,0.3,1.2,0.4c0,0,0.1,0,0.1-0.1c0.2-0.1,0.5-0.3,0.5-0.4l0.9-1.8l0.9,1.8c0.3,0.6,0.7,0.7,1.8,0.8
		c0.9,0.1,1.8,0.3,2.6,1l0.5,0.4l-0.2,0.6c-0.2,0.6-0.5,0.8-0.8,0.9c-0.6,0.3-1.3,0-1.8-0.2c-0.2-0.1-0.4-0.2-0.5-0.2
		c-0.4-0.1-0.8-0.1-1.2-0.1l0.7,0.3l-0.3,0.9c-0.2,0.4-0.4,0.7-0.7,0.9c0.5,0.3,1,0.6,1.5,0.9c1.1,0.8,2.2,1.5,3.7,1.8
		c1.2-0.7,2.8-0.8,4.2-0.9c1.1-0.1,2.3-0.1,2.7-0.5l0.4-0.3l0.5,0.1c0.8,0.2,1.3,0.6,1.7,0.9c0.3,0.2,0.5,0.4,0.9,0.5
		c0.1-0.3,0.3-0.6,0.6-0.8l1.7-1.1l-0.2,2.1c0,0.5,0.1,0.8,0.2,1.2c0.2,0,0.4,0,0.6,0.2c0.3,0.2,0.5,0.5,0.5,0.9l0,0.6l-0.5,0.3
		c-0.7,0.4-1.4,0.7-2.2,1c-0.9,0.4-1.8,0.7-2.3,1.3l-0.4,0.4l-0.6-0.1c0,0-0.1,0-0.1,0c-0.5,0.6-1.3,0.8-1.9,1.1
		c-0.5,0.2-0.9,0.3-1.3,0.6c0,0-0.1,0.1-0.1,0.2c-0.2,0.3-0.4,0.6-0.7,0.9c-0.4,0.3-0.9,0.6-1.4,0.8c-1.2,0.6-1.6,0.9-1.6,1.4
		c0.2,0.2,0.5,0.3,0.9,0.3c2.2-1.6,4-0.3,5.2,0.6c1.2,0.9,1.8,1.2,2.6,0.7l0.5-0.3l0.5,0.2c3.3,1.5,3.1,3.9,2.7,5.2
		c-0.2,0.6-0.6,0.9-0.9,1.1c-0.1,0.1-0.2,0.2-0.3,0.2c0,0,0.1,0.3,0.2,0.5c0.2,0.5,0.5,1.3,0.1,2.1l-0.2,0.4l-0.4,0.2
		c-0.1,0.1-0.3,0.1-0.4,0.2c-0.2,0.1-0.5,0.2-0.6,0.3c0.4,0.4,0.9,0.6,1.7,0.5L121.8,113.4z M76.5,100.4c0.7,0.3,1.2,0.8,1.6,1.5
		c0-0.1,0-0.3,0-0.4c-0.1-0.7-0.4-0.8-0.6-0.8L76.5,100.4z M76.9,76.9L76.9,76.9C76.9,77,76.9,77,76.9,76.9
		C76.9,76.9,76.9,76.9,76.9,76.9z M72.3,67.4C72.3,67.4,72.3,67.4,72.3,67.4C72.3,67.4,72.3,67.4,72.3,67.4z M73.7,66.2L73.7,66.2
		L73.7,66.2z M183.5,52.7C183.5,52.7,183.5,52.7,183.5,52.7L183.5,52.7z M157,28.5L157,28.5L157,28.5z M99.9,6.3
		C99.9,6.3,99.9,6.3,99.9,6.3C99.9,6.3,99.9,6.3,99.9,6.3z"/>
</g>
<path id="SvgjsPath1071" class="st2" fill="#ff7000" d="M38,28.6c0-0.8,0.9-1.5,2-1.5s2,0.7,2,1.5s-0.9,1.5-2,1.5S38,29.5,38,28.6z"/>
<path id="SvgjsPath1072" class="st2" fill="#ff7000" d="M23,42.6c0-0.8,0.9-1.5,2-1.5s2,0.7,2,1.5s-0.9,1.5-2,1.5S23,43.5,23,42.6z"/>
<path id="SvgjsPath1073" class="st2" fill="#ff7000" d="M70,42.6c0-0.8,0.9-1.5,2-1.5s2,0.7,2,1.5s-0.9,1.5-2,1.5S70,43.5,70,42.6z"/>
<path id="SvgjsPath1074" class="st2" fill="#ff7000" d="M94,61.6c0-0.8,0.9-1.5,2-1.5c1.1,0,2,0.7,2,1.5s-0.9,1.5-2,1.5C94.9,63.1,94,62.5,94,61.6z
	"/>
<path id="SvgjsPath1075" class="st2" fill="#ff7000" d="M97,37.6c0-1.9,1.8-3.5,4-3.5s4,1.6,4,3.5s-1.8,3.5-4,3.5S97,39.6,97,37.6z"/>
<path id="SvgjsPath1076" class="st2" fill="#ff7000" d="M118,72.6c0-0.8,0.9-1.5,2-1.5s2,0.7,2,1.5s-0.9,1.5-2,1.5S118,73.5,118,72.6z"/>
<path id="SvgjsPath1077" class="st2" fill="#ff7000" d="M118,50.6c0-0.8,0.9-1.5,2-1.5s2,0.7,2,1.5s-0.9,1.5-2,1.5S118,51.5,118,50.6z"/>
<path id="SvgjsPath1078" class="st2" fill="#ff7000" d="M143,50.6c0-0.8,0.9-1.5,2-1.5s2,0.7,2,1.5s-0.9,1.5-2,1.5S143,51.5,143,50.6z"/>
<path id="SvgjsPath1079" class="st2" fill="#ff7000" d="M161,42.6c0-0.8,0.9-1.5,2-1.5s2,0.7,2,1.5s-0.9,1.5-2,1.5S161,43.5,161,42.6z"/>
<path id="SvgjsPath1080" class="st2" fill="#ff7000" d="M137,72.6c0-0.8,0.9-1.5,2-1.5s2,0.7,2,1.5s-0.9,1.5-2,1.5S137,73.5,137,72.6z"/>
</svg>
