<?xml version="1.0" encoding="utf-8"?>
<!-- Generator: Adobe Illustrator 20.1.0, SVG Export Plug-In . SVG Version: 6.00 Build 0)  -->
<svg version="1.1" id="SvgjsSvg1055" xmlns="http://www.w3.org/2000/svg" xmlns:xlink="http://www.w3.org/1999/xlink" x="0px" y="0px"
	 viewBox="0 0 49 42" style="enable-background:new 0 0 49 42;" xml:space="preserve">
<style type="text/css">
	.st0{fill-opacity:0;}
	.st1{fill:#CCCCCC;}
</style>
<g>
	<path id="SvgjsPath1007_1_" class="st0" d="M24,37V7"/>
	<rect x="22" y="7" class="st1" width="4" height="30"/>
</g>
<g>
	<path class="st1" d="M2,37c-1.1,0-2-0.9-2-2V3.5c0-0.6,0.2-1.2,0.7-1.7C1.5,1,2.7,1,3.4,1h0.1h13c3.8,0,7.7,2.1,9.5,5.1
		c0.6,0.9,0.3,2.2-0.7,2.7c-0.9,0.6-2.2,0.3-2.7-0.7c-1.1-1.8-3.7-3.2-6-3.2H4v30C4,36.1,3.1,37,2,37z"/>
</g>
<g>
	<path class="st1" d="M45.8,37c-1.1,0-2-0.9-2-2V5H32.2c-2.5,0-5.5,1.5-6.5,3.1C25.1,9,23.9,9.4,23,8.8c-1-0.5-1.3-1.8-0.7-2.7
		c2-3.3,6.6-5.1,10-5.1h13.1c0.3,0,1.1,0,1.7,0.6c0.6,0.6,0.6,1.4,0.6,1.8v0.1V35C47.8,36.1,46.9,37,45.8,37z"/>
</g>
<g>
	<path id="SvgjsPath1010_1_" class="st0" d="M2.1,36h14.4c3,0,6.2,1.3,7.9,3.4"/>
	<path class="st1" d="M24.4,41.4c-0.6,0-1.2-0.3-1.7-0.8C21.6,39.1,19,38,16.5,38H2.1C0.9,38,0,37.1,0,36s0.9-2,2.1-2h14.4
		c3.7,0,7.6,1.7,9.6,4.2c0.7,0.9,0.5,2.1-0.4,2.8C25.3,41.2,24.8,41.4,24.4,41.4z"/>
</g>
<g>
	<path id="SvgjsPath1011_1_" class="st0" d="M45.7,36h-14c-2.9,0-6,1.3-7.7,3.4"/>
	<path class="st1" d="M24,41.4c-0.4,0-0.8-0.1-1.2-0.4c-0.9-0.7-1.1-1.9-0.4-2.8c1.9-2.5,5.6-4.2,9.3-4.2h14c1.1,0,2,0.9,2,2
		s-0.9,2-2,2h-14c-2.3,0-4.8,1.1-6,2.6C25.2,41.1,24.6,41.4,24,41.4z"/>
</g>
</svg>
