<?xml version="1.0" encoding="utf-8"?>
<!-- Generator: Adobe Illustrator 19.2.1, SVG Export Plug-In . SVG Version: 6.00 Build 0)  -->
<svg version="1.1" id="SvgjsSvg1046" xmlns:svgjs="http://svgjs.com/svgjs"
	 xmlns="http://www.w3.org/2000/svg" xmlns:xlink="http://www.w3.org/1999/xlink" x="0px" y="0px" viewBox="0 0 37 37"
	 style="enable-background:new 0 0 37 37;" xml:space="preserve">
<style type="text/css">
	.st0{fill:#32568B;}
</style>
<title>grid</title>
<desc>Created with Avocode.</desc>
<path id="SvgjsPath1048" class="st0" d="M24.7,37c-1.7,0-3.1-1.4-3.1-3.1v-9.3c0-1.7,1.4-3.1,3.1-3.1h9.3c1.7,0,3.1,1.4,3.1,3.1v9.3
	c0,1.7-1.4,3.1-3.1,3.1H24.7z M24.7,15.4c-1.7,0-3.1-1.4-3.1-3.1V3.1C21.6,1.4,23,0,24.7,0h9.3C35.6,0,37,1.4,37,3.1v9.3
	c0,1.7-1.4,3.1-3.1,3.1H24.7z M3.1,37C1.4,37,0,35.6,0,33.9v-9.3c0-1.7,1.4-3.1,3.1-3.1h9.3c1.7,0,3.1,1.4,3.1,3.1v9.3
	c0,1.7-1.4,3.1-3.1,3.1H3.1z M3.1,15.4C1.4,15.4,0,14,0,12.3V3.1C0,1.4,1.4,0,3.1,0h9.3c1.7,0,3.1,1.4,3.1,3.1v9.3
	c0,1.7-1.4,3.1-3.1,3.1H3.1z M24.7,24.7v9.3h9.3v-9.3H24.7z M24.7,3.1v9.3h9.3V3.1H24.7z M3.1,24.7v9.3h9.3v-9.3H3.1z M3.1,3.1v9.3
	h9.3V3.1H3.1z"/>
</svg>
