<svg xmlns="http://www.w3.org/2000/svg" viewBox="0 0 34 36" id="SvgjsSvg100a">
    <defs>
        <style>
            .cls-1 {
                fill: #fff;
            }
        </style>
    </defs>
    <title>user</title>
    <g id="Слой_2" data-name="Слой 2">
        <g id="Слой_1-2" data-name="Слой 1">
            <g id="Page-1">
                <g id="DFS_Homepage-v2" data-name="DFS Homepage-v2">
                    <g id="Icon"><path class="cls-1" d="M32,30a2,2,0,0,1-2-2c0-3.38-5.22-7-13-7S4,24.62,4,28a2,2,0,0,1-4,0c0-6.17,7.47-11,17-11s17,4.83,17,11A2,2,0,0,1,32,30Z"/><path class="cls-1" d="M17.5,21A10.5,10.5,0,1,1,28,10.5,10.51,10.51,0,0,1,17.5,21Zm0-17A6.5,6.5,0,1,0,24,10.5,6.51,6.51,0,0,0,17.5,4Z"/><path class="cls-1" d="M31.42,36H3a3.19,3.19,0,0,1-3-3.08V28a2,2,0,0,1,4,0v4H30V28a2,2,0,0,1,4,0v4.92C34,34.71,32.91,36,31.42,36ZM4,32.92H4Z"/></g>
                </g>
            </g>
        </g>
    </g>
</svg>
