<?xml version="1.0" encoding="utf-8"?>
<!-- Generator: Adobe Illustrator 19.2.1, SVG Export Plug-In . SVG Version: 6.00 Build 0)  -->
<svg version="1.1" id="SvgjsSvg1016" xmlns:svgjs="http://svgjs.com/svgjs"
	 xmlns="http://www.w3.org/2000/svg" xmlns:xlink="http://www.w3.org/1999/xlink" x="0px" y="0px" viewBox="0 0 39 35.9"
	 style="enable-background:new 0 0 39 35.9;" xml:space="preserve">
<style type="text/css">
	.st0{fill:#FFFFFF;fill-opacity:0;}
	.st1{fill:#32568B;}
</style>
<title>Icon</title>
<desc>Created with Avocode.</desc>
<g>
	<path class="st1" d="M36.2,36H2.9C0.5,36,0,32.8,0,32V8.2c0-1.1,0.9-2,2-2s2,0.9,2,2V32h31c0,0,0,0,0,0l0-21.8H17.4
		c-1.1,0-2-0.9-2-2s0.9-2,2-2h18.6c0.8-0.3,1.5-0.3,2.1,0.1c0.6,0.4,1,1.1,1,1.8V32C39,32.8,38.5,36,36.2,36z M4.2,32.7L4.2,32.7
		L4.2,32.7z"/>
</g>
<g>
	<path class="st1" d="M17,9c-0.7,0-1.4-0.4-1.8-1l-2-3.7H4V7c0,1.1-0.9,2-2,2S0,8.1,0,7V2.1c0-1.2,0.8-1.8,1.5-2C2-0.1,2.6,0,3,0.3
		h10.5c0.4-0.1,1.3-0.3,2.1,0.4c0.3,0.3,0.5,0.6,0.7,1L18.7,6c0.5,1,0.2,2.2-0.8,2.7C17.7,8.9,17.3,9,17,9z"/>
</g>
<g>
	<path class="st1" d="M35,4H21c-1.1,0-2-0.9-2-2s0.9-2,2-2h14c1.1,0,2,0.9,2,2S36.1,4,35,4z"/>
</g>
</svg>
