<svg id="SvgjsSvg1012" xmlns="http://www.w3.org/2000/svg" version="1.1" xmlns:xlink="http://www.w3.org/1999/xlink" xmlns:svgjs="http://svgjs.com/svgjs" width="85" height="44" viewBox="0 0 85 44"><title>Combined Shape</title><desc>Created with Avocode.</desc><defs id="SvgjsDefs1013"></defs><path id="SvgjsPath1014" d="M987.48 1515.14C987.48 1515.14 987.4300000000001 1515.1200000000001 987.34 1515.0700000000002C987.25 1515.0200000000002 987.1600000000001 1514.9700000000003 987.07 1514.94C984.9100000000001 1513.8600000000001 974.4000000000001 1508.89 963.8900000000001 1508.89C962.5900000000001 1508.89 961.5400000000001 1509.95 961.5400000000001 1511.24C961.5400000000001 1512.54 962.59 1513.59 963.8900000000001 1513.59C969.7600000000001 1513.59 974.4600000000002 1517.11 974.4600000000002 1517.11C972.7200000000001 1517.75 968.5900000000001 1517.6999999999998 968.5900000000001 1517.6999999999998L947.4500000000002 1517.6999999999998C946.1500000000002 1517.6999999999998 945.1000000000001 1518.7499999999998 945.1000000000001 1520.0499999999997C945.1000000000001 1521.3499999999997 946.1500000000001 1522.3999999999996 947.4500000000002 1522.3999999999996L965.0600000000002 1522.3999999999996L965.0600000000002 1524.1599999999996L943.9300000000002 1524.1599999999996C942.6300000000002 1524.1599999999996 941.5800000000002 1525.2099999999996 941.5800000000002 1526.5099999999995C941.5800000000002 1527.7999999999995 942.6300000000001 1528.8599999999994 943.9300000000002 1528.8599999999994L965.0600000000002 1528.8599999999994L965.0600000000002 1530.6199999999994L947.4500000000002 1530.6199999999994C946.1500000000002 1530.6199999999994 945.1000000000001 1531.6699999999994 945.1000000000001 1532.9699999999993C945.1000000000001 1534.2599999999993 946.1500000000001 1535.3099999999993 947.4500000000002 1535.3099999999993L965.0600000000002 1535.3099999999993L965.0600000000002 1537.0799999999992L953.3200000000002 1537.0799999999992C952.0200000000002 1537.0799999999992 950.9700000000001 1538.1299999999992 950.9700000000001 1539.4199999999992C950.9700000000001 1540.7199999999991 952.0200000000001 1541.769999999999 953.3200000000002 1541.769999999999L969.3900000000002 1541.769999999999L969.3900000000002 1541.759999999999C979.3400000000003 1541.579999999999 983.0800000000003 1538.289999999999 987.4600000000003 1535.529999999999C988.1100000000002 1535.109999999999 988.5500000000003 1534.379999999999 988.5500000000003 1533.549999999999L988.5500000000003 1517.109999999999C988.5500000000003 1516.289999999999 988.1200000000003 1515.569999999999 987.4800000000002 1515.149999999999ZM904 1525.34L911.05 1525.34L911.05 1499.5L904 1499.5ZM935.97 1516.67C935.97 1518.28 936.86 1519.98 939.28 1520.3200000000002L939.28 1521.4500000000003L940.61 1521.4500000000003L940.61 1520.3700000000003C942.58 1520.2000000000003 943.9300000000001 1518.7300000000002 943.9300000000001 1516.6700000000003C943.9300000000001 1514.5400000000002 941.9000000000001 1513.4400000000003 940.61 1513.0600000000004L940.61 1509.8800000000003C941.8000000000001 1510.1700000000003 941.8000000000001 1511.0400000000004 941.8000000000001 1511.3700000000003L943.9300000000001 1511.3700000000003C943.9300000000001 1509.7600000000004 943.0300000000001 1508.0700000000004 940.61 1507.7200000000003L940.61 1506.5900000000001L939.28 1506.5900000000001L939.28 1507.67C937.31 1507.8500000000001 935.97 1509.3200000000002 935.97 1511.3700000000001C935.97 1513.5000000000002 937.99 1514.6100000000001 939.28 1514.98L939.28 1518.16C938.0899999999999 1517.8700000000001 938.0899999999999 1517 938.0899999999999 1516.67ZM939.28 1509.81L939.28 1512.6799999999998C938.7099999999999 1512.4399999999998 938.0899999999999 1512.0299999999997 938.0899999999999 1511.37C938.0899999999999 1510.5 938.5199999999999 1509.9499999999998 939.28 1509.81ZM941.8 1516.68C941.8 1517.55 941.37 1518.0900000000001 940.6099999999999 1518.23L940.6099999999999 1515.3700000000001C941.18 1515.6000000000001 941.8 1516.0100000000002 941.8 1516.68ZM940.83 1522.98L921.61 1522.98L921.61 1505.3700000000001L925.63 1505.3700000000001C927.08 1506.8400000000001 928.84 1508.66 930.48 1510.38C930.94 1510.8600000000001 931.5600000000001 1511.1100000000001 932.1800000000001 1511.1100000000001C932.19 1511.1100000000001 932.2 1511.1100000000001 932.21 1511.1100000000001C933.5 1511.1100000000001 934.5600000000001 1510.0600000000002 934.5600000000001 1508.7700000000002C934.5600000000001 1508.3600000000001 934.45 1507.9700000000003 934.2700000000001 1507.64C934.0300000000001 1507.0200000000002 933.7100000000002 1506.23 933.33 1505.3700000000001L956.84 1505.3700000000001L956.84 1515.3500000000001L959.19 1515.3500000000001L959.19 1503.0200000000002L932.2 1503.0200000000002C931.1800000000001 1501.0900000000001 929.94 1499.2600000000002 928.6700000000001 1498.5200000000002C928.0500000000001 1498.1600000000003 927.3000000000001 1498.0000000000002 926.23 1498.0000000000002C925.04 1498.0000000000002 923.74 1498.2000000000003 923.59 1498.2300000000002C923.4100000000001 1498.2600000000002 916.72 1499.9300000000003 913.39 1501.2200000000003L913.39 1523.2900000000002C916.1899999999999 1524.7900000000002 923.3199999999999 1528.3200000000002 928.6999999999999 1528.3200000000002L939.5999999999999 1528.3200000000002C939.3699999999999 1527.7600000000002 939.2299999999999 1527.15 939.2299999999999 1526.5100000000002C939.2299999999999 1525.1000000000001 939.8499999999999 1523.8500000000001 940.8299999999999 1522.9800000000002Z " fill="#ffffff" fill-opacity="1" transform="matrix(1,0,0,1,-904,-1498)"></path></svg>