<svg id="SvgjsSvg1000" xmlns="http://www.w3.org/2000/svg" version="1.1" xmlns:xlink="http://www.w3.org/1999/xlink" xmlns:svgjs="http://svgjs.com/svgjs" width="38" height="40" viewBox="0 0 38 40"><title>Combined Shape</title><desc>Created with Avocode.</desc><defs id="SvgjsDefs1001"></defs><path id="SvgjsPath1007" d="M1013.47 1022.95C1013.47 1021.25 1012.23 1020 1010.5500000000001 1020L996.34 1020C994.6600000000001 1020 993.26 1021.25 993.26 1022.95L993.26 1057.56L990 1057.56L990 1060L1016.67 1060L1016.67 1057.56L1013.41 1057.56ZM1011.05 1033.48C1011.05 1034.16 1010.49 1034.73 1009.8199999999999 1034.73L996.91 1034.73C996.23 1034.73 995.67 1034.16 995.67 1033.48L995.67 1023.6800000000001C995.67 1023.0000000000001 996.2299999999999 1022.44 996.91 1022.44L1009.8199999999999 1022.44C1010.4899999999999 1022.44 1011.05 1023 1011.05 1023.6800000000001ZM1025.38 1037.93C1025.21 1037.26 1025.0400000000002 1036.69 1025.0400000000002 1036.0800000000002L1025.0400000000002 1033.5500000000002L1025.2100000000003 1033.5500000000002L1026.8900000000003 1031.5300000000002C1026.8900000000003 1031.5300000000002 1027.5600000000004 1025.0700000000002 1018.1400000000003 1021.4800000000002L1016.9100000000003 1023.4500000000003C1016.9100000000003 1023.4500000000003 1021.5100000000003 1027.7100000000003 1021.4500000000003 1031.9200000000003L1022.5700000000003 1033.5500000000004L1022.5700000000003 1036.0800000000004C1022.5700000000003 1036.8600000000004 1022.7400000000002 1037.7600000000004 1022.9700000000003 1038.4900000000005L1025.1500000000003 1048.8200000000004C1025.3800000000003 1049.8900000000003 1025.2100000000003 1050.9000000000003 1024.5900000000004 1051.7400000000005C1023.9200000000004 1052.5200000000004 1022.9700000000004 1053.0300000000004 1021.9000000000003 1053.0300000000004C1020.0500000000003 1053.0300000000004 1018.5900000000004 1051.5700000000004 1018.4800000000004 1049.7200000000005L1019.4300000000004 1041.4700000000005L1019.4300000000004 1041.3000000000004C1019.4300000000004 1038.8800000000003 1017.4200000000004 1036.7500000000005 1015.0100000000004 1036.7500000000005L1014.4400000000004 1036.7500000000005L1014.4400000000004 1039.1600000000005L1015.0100000000004 1039.1600000000005C1016.1300000000005 1039.1600000000005 1017.0200000000004 1040.0600000000006 1017.0200000000004 1041.1800000000005L1016.1300000000005 1049.5500000000004L1016.1300000000005 1049.7200000000005C1016.1300000000005 1052.9700000000005 1018.7100000000005 1055.5600000000004 1021.9600000000005 1055.5600000000004C1023.7500000000005 1055.5600000000004 1025.4300000000005 1054.7700000000004 1026.5600000000004 1053.3100000000004C1027.6800000000003 1051.7900000000004 1028.0100000000004 1049.9400000000005 1027.6200000000003 1048.2600000000004Z " fill="#ffffff" fill-opacity="1" transform="matrix(1,0,0,1,-990,-1020)"></path></svg>