<svg id="SvgjsSvg1015" xmlns="http://www.w3.org/2000/svg" version="1.1" xmlns:xlink="http://www.w3.org/1999/xlink" xmlns:svgjs="http://svgjs.com/svgjs" width="19" height="26" viewBox="0 0 19 26"><title>Combined Shape Copy 8</title><desc>Created with Avocode.</desc><defs id="SvgjsDefs1016"></defs><path id="SvgjsPath1017" d="M355.01 875L369.99 875C371.1 875 372 875.89 372 877L372 899C372 900.11 371.1 901 369.99 901L355.01 901C353.9 901 353 900.11 353 899L353 877C353 875.89 353.9 875 355.01 875ZM355 899L369.99 899C370 899 370 877 370 877L355.01 877C355 877 355 899 355 899ZM358 883L358 881L367 881L367 883ZM358 887L358 885L367 885L367 887ZM358 891L358 889L363 889L363 891Z " fill="#1a3154" fill-opacity="1" transform="matrix(1,0,0,1,-353,-875)"></path></svg>