<svg id="SvgjsSvg1038" xmlns="http://www.w3.org/2000/svg" version="1.1" xmlns:xlink="http://www.w3.org/1999/xlink" xmlns:svgjs="http://svgjs.com/svgjs" width="26" height="30" viewBox="0 0 26 30"><title>Combined Shape</title><desc>Created with Avocode.</desc><defs id="SvgjsDefs1039"></defs><path id="SvgjsPath1040" d="M27.84 47.82C27.38 47.36 27.43 46.62 27.84 46.2C28.29 45.74 29.02 45.790000000000006 29.43 46.2C30.11 46.900000000000006 31.02 47.36 31.93 47.31C32.47 47.31 33.25 47.13 33.93 46.43C34.02 46.339999999999996 34.07 46.3 34.16 46.25L41.97 38.13C45.47 34.57 45.47 28.53 41.97 24.970000000000002C38.47 21.42 32.75 21.42 29.2 24.970000000000002C28.75 25.430000000000003 28.02 25.430000000000003 27.61 24.970000000000002C27.16 24.51 27.16 23.770000000000003 27.61 23.360000000000003C32.019999999999996 18.880000000000003 39.16 18.880000000000003 43.57 23.360000000000003C47.93 27.790000000000003 47.93 35.31 43.57 39.74L35.57 48.050000000000004C35.52 48.1 35.43 48.190000000000005 35.34 48.230000000000004C34.43000000000001 49.160000000000004 33.2 49.67 31.880000000000003 49.67C31.970000000000002 49.620000000000005 31.970000000000002 49.620000000000005 31.930000000000003 49.620000000000005C30.430000000000003 49.620000000000005 28.930000000000003 48.970000000000006 27.840000000000003 47.82000000000001ZM26.56 39.54C26.049999999999997 39.23 25.88 38.58 26.139999999999997 38.06C27.119999999999997 36.230000000000004 27.119999999999997 34.11 26.139999999999997 32.28C25.839999999999996 31.76 26.049999999999997 31.11 26.56 30.8C27.07 30.5 27.709999999999997 30.720000000000002 28.009999999999998 31.240000000000002C29.33 33.71 29.33 36.620000000000005 28.009999999999998 39.1C27.799999999999997 39.45 27.459999999999997 39.67 27.069999999999997 39.67C26.899999999999995 39.67 26.729999999999997 39.620000000000005 26.559999999999995 39.54ZM22.62 37.25C22.02 36.96 21.82 36.33 22.17 35.83C22.470000000000002 35.37 22.470000000000002 34.75 22.17 34.29C21.82 33.79 22.020000000000003 33.17 22.62 32.87C23.220000000000002 32.58 23.970000000000002 32.75 24.32 33.25C25.12 34.37 25.12 35.75 24.32 36.87C24.12 37.21 23.72 37.37 23.27 37.37C23.07 37.37 22.82 37.33 22.62 37.25ZM30.65 42.53C30.07 42.21 29.88 41.52 30.169999999999998 40.96C32.11 37.7 32.11 33.65 30.169999999999998 30.39C29.83 29.84 30.02 29.150000000000002 30.599999999999998 28.82C31.189999999999998 28.5 31.909999999999997 28.69 32.25 29.240000000000002C34.58 33.150000000000006 34.58 38.07 32.25 42.02C32.06 42.440000000000005 31.67 42.67 31.23 42.67C31.04 42.67 30.85 42.620000000000005 30.650000000000002 42.53Z " fill="#32568b" fill-opacity="1" transform="matrix(1,0,0,1,-21,-20)"></path></svg>