<svg id="SvgjsSvg1014" xmlns="http://www.w3.org/2000/svg" version="1.1" xmlns:xlink="http://www.w3.org/1999/xlink" xmlns:svgjs="http://svgjs.com/svgjs" width="20" height="20" viewBox="0 0 20 20"><title>Pinterest</title><desc>Created with Avocode.</desc><defs id="SvgjsDefs1015"></defs><path id="SvgjsPath1016" d="M126 0C120.48 0 116 4.48 116 10C116 14.09 118.46 17.61 121.99 19.16C121.96 18.46 121.97999999999999 17.62 122.16 16.86C122.35 16.05 123.45 11.41 123.45 11.41C123.45 11.41 123.13000000000001 10.78 123.13000000000001 9.83C123.13000000000001 8.35 123.99000000000001 7.24 125.06000000000002 7.24C125.97000000000001 7.24 126.41000000000001 7.93 126.41000000000001 8.74C126.41000000000001 9.66 125.82000000000001 11.030000000000001 125.52000000000001 12.29C125.27000000000001 13.35 126.05000000000001 14.219999999999999 127.10000000000001 14.219999999999999C128.99 14.219999999999999 130.27 11.79 130.27 8.899999999999999C130.27 6.709999999999999 128.79000000000002 5.0699999999999985 126.11000000000001 5.0699999999999985C123.08000000000001 5.0699999999999985 121.19000000000001 7.329999999999998 121.19000000000001 9.86C121.19000000000001 10.729999999999999 121.44000000000001 11.34 121.85000000000001 11.82C122.03000000000002 12.040000000000001 122.06 12.13 121.99000000000001 12.38C121.94000000000001 12.56 121.83000000000001 13.010000000000002 121.79 13.180000000000001C121.72000000000001 13.430000000000001 121.51 13.530000000000001 121.29 13.430000000000001C119.89 12.860000000000001 119.24000000000001 11.330000000000002 119.24000000000001 9.610000000000001C119.24000000000001 6.770000000000001 121.63000000000001 3.360000000000001 126.38000000000001 3.360000000000001C130.20000000000002 3.360000000000001 132.72 6.130000000000001 132.72 9.090000000000002C132.72 13.010000000000002 130.54 15.950000000000003 127.32 15.950000000000003C126.24 15.950000000000003 125.22 15.360000000000003 124.88 14.700000000000003C124.88 14.700000000000003 124.3 17.000000000000004 124.17 17.450000000000003C123.96000000000001 18.220000000000002 123.55 18.990000000000002 123.17 19.590000000000003C124.07000000000001 19.860000000000003 125.02 20.000000000000004 126 20.000000000000004C131.52 20.000000000000004 136 15.520000000000003 136 10.000000000000004C136 4.480000000000004 131.52 3.552713678800501e-15 126 3.552713678800501e-15 " fill="#ffffff" fill-opacity="1" transform="matrix(1,0,0,1,-116,0)"></path></svg>