<svg id="SvgjsSvg1017" xmlns="http://www.w3.org/2000/svg" version="1.1" xmlns:xlink="http://www.w3.org/1999/xlink" xmlns:svgjs="http://svgjs.com/svgjs" width="23" height="20" viewBox="0 0 23 20"><title>LinkedIn</title><desc>Created with Avocode.</desc><defs id="SvgjsDefs1018"></defs><path id="SvgjsPath1019" d="M168.98 20L168.98 12.82C168.98 10.95 168.2 9.66 166.47 9.66C165.15 9.66 164.42 10.53 164.08 11.36C163.95000000000002 11.66 163.97 12.08 163.97 12.5L163.97 20L159 20C159 20 159.06 7.289999999999999 159 6.130000000000001L163.97 6.130000000000001L163.97 8.31C164.26 7.36 165.85 6 168.39 6C171.52999999999997 6 174 7.99 174 12.29L174 20ZM153.46 5C151.97 5 151 3.9 151 2.5C151 1.08 152 0 153.52 0C155.04000000000002 0 155.97 1.08 156 2.5C156 3.8899999999999997 155.04 5 153.49 5ZM152 6L152 20L156 20L156 6Z " fill="#ffffff" fill-opacity="1" transform="matrix(1,0,0,1,-151,0)"></path></svg>