<svg id="SvgjsSvg1011" xmlns="http://www.w3.org/2000/svg" version="1.1" xmlns:xlink="http://www.w3.org/1999/xlink" xmlns:svgjs="http://svgjs.com/svgjs" width="27" height="17" viewBox="0 0 27 17"><title>GooglePlus</title><desc>Created with Avocode.</desc><defs id="SvgjsDefs1012"></defs><path id="SvgjsPath1013" d="M104.03 6.04L101.91 6.04L101.91 8.99L98.85 8.99L98.85 11.09L101.91 11.09L101.91 14.12L104.03 14.12L104.03 11.09L107 11.09L107 8.99L104.03 8.99ZM88.58 8.82C88.58 8.82 95.14 8.82 96.81 8.82C97.38 12.89 95.65 19 88.58 19C83.84 19 80 15.19 80 10.5C80 5.81 83.84 2 88.58 2C90.8 2 92.82 2.84 94.35 4.21C92.55 5.89 92.61 5.99 91.89999999999999 6.6899999999999995C91.02 5.97 90.05999999999999 5.449999999999999 88.58 5.449999999999999C85.76 5.449999999999999 83.57 7.709999999999999 83.57 10.5C83.57 13.29 85.75999999999999 15.55 88.58 15.55C91.36 15.55 92.49 14.360000000000001 93.21 12.18C91.86999999999999 12.18 88.58 12.18 88.58 12.18Z " fill="#ffffff" fill-opacity="1" transform="matrix(1,0,0,1,-80,-2)"></path></svg>