<svg id="SvgjsSvg1020" xmlns="http://www.w3.org/2000/svg" version="1.1" xmlns:xlink="http://www.w3.org/1999/xlink" xmlns:svgjs="http://svgjs.com/svgjs" width="24" height="24" viewBox="0 0 24 24"><title>Combined Shape</title><desc>Created with Avocode.</desc><defs id="SvgjsDefs1021"></defs><path id="SvgjsPath1022" d="M947 26C947 19.37258 952.37258 14 959 14C965.62742 14 971 19.37258 971 26C971 32.62742 965.62742 38 959 38C952.37258 38 947 32.62742 947 26ZM959 36C964.52285 36 969 31.52285 969 26C969 20.47715 964.52285 16 959 16C953.47715 16 949 20.47715 949 26C949 31.52285 953.47715 36 959 36ZM953 25L958 25L958 20L960 20L960 25L965 25L965 27L960 27L960 32L958 32L958 27L953 27Z " fill="#ffffff" fill-opacity="1" transform="matrix(1,0,0,1,-947,-14)"></path></svg>