<svg id="SvgjsSvg1000" xmlns="http://www.w3.org/2000/svg" version="1.1" xmlns:xlink="http://www.w3.org/1999/xlink" xmlns:svgjs="http://svgjs.com/svgjs" width="20" height="20" viewBox="0 0 20 20"><title>Facebook</title><desc>Created with Avocode.</desc><defs id="SvgjsDefs1001"></defs><path id="SvgjsPath1007" d="M10.68 20L1.0999999999999996 20C0.48999999999999966 20 -4.440892098500626e-16 19.51 -4.440892098500626e-16 18.9L-4.440892098500626e-16 1.0999999999999979C-4.440892098500626e-16 0.4899999999999979 0.48999999999999955 -2.220446049250313e-15 1.0999999999999996 -2.220446049250313e-15L18.9 -2.220446049250313e-15C19.509999999999998 -2.220446049250313e-15 20 0.48999999999999777 20 1.0999999999999979L20 18.9C20 19.509999999999998 19.51 20 18.9 20L13.799999999999999 20L13.799999999999999 12.25L16.4 12.25L16.79 9.24L13.799999999999999 9.24L13.799999999999999 7.3100000000000005C13.799999999999999 6.44 14.04 5.840000000000001 15.299999999999999 5.840000000000001L16.89 5.840000000000001L16.89 3.1400000000000006C16.62 3.1000000000000005 15.67 3.0200000000000005 14.56 3.0200000000000005C12.260000000000002 3.0200000000000005 10.68 4.430000000000001 10.68 7.010000000000001L10.68 9.24L8.08 9.24L8.08 12.25L10.68 12.25Z " fill="#ffffff" fill-opacity="1" transform="matrix(1,0,0,1,0,0)"></path></svg>