<svg id="SvgjsSvg1000" xmlns="http://www.w3.org/2000/svg" version="1.1" xmlns:xlink="http://www.w3.org/1999/xlink" xmlns:svgjs="http://svgjs.com/svgjs" width="20" height="16" viewBox="0 0 20 16"><title>Twitter</title><desc>Created with Avocode.</desc><defs id="SvgjsDefs1001"></defs><path id="SvgjsPath1007" d="M62 4.89C61.27 5.22 60.47 5.43 59.64 5.529999999999999C60.49 5.029999999999999 61.14 4.239999999999999 61.45 3.2999999999999994C60.650000000000006 3.7599999999999993 59.78 4.09 58.84 4.27C58.09 3.4899999999999993 57.03 2.9999999999999996 55.85 2.9999999999999996C53.58 2.9999999999999996 51.74 4.81 51.74 7.039999999999999C51.74 7.359999999999999 51.78 7.659999999999999 51.85 7.959999999999999C48.44 7.789999999999999 45.42 6.179999999999999 43.39 3.7399999999999993C43.04 4.339999999999999 42.84 5.029999999999999 42.84 5.77C42.84 7.17 43.56 8.41 44.660000000000004 9.129999999999999C43.99 9.11 43.36000000000001 8.93 42.800000000000004 8.629999999999999L42.800000000000004 8.68C42.800000000000004 10.64 44.220000000000006 12.27 46.1 12.64C45.75 12.73 45.39 12.780000000000001 45.01 12.780000000000001C44.75 12.780000000000001 44.489999999999995 12.760000000000002 44.239999999999995 12.71C44.76 14.31 46.279999999999994 15.48 48.08 15.510000000000002C46.67 16.6 44.9 17.240000000000002 42.98 17.240000000000002C42.65 17.240000000000002 42.32 17.220000000000002 42 17.19C43.82 18.330000000000002 45.97 19 48.29 19C55.839999999999996 19 59.96 12.85 59.96 7.51C59.96 7.33 59.96 7.16 59.95 6.9799999999999995C60.760000000000005 6.409999999999999 61.45 5.699999999999999 62 4.89 " fill="#ffffff" fill-opacity="1" transform="matrix(1,0,0,1,-42,-3)"></path></svg>