<svg id="SvgjsSvg1010" xmlns="http://www.w3.org/2000/svg" version="1.1" xmlns:xlink="http://www.w3.org/1999/xlink" xmlns:svgjs="http://svgjs.com/svgjs" width="21" height="20" viewBox="0 0 21 20"><title>Stroke 27</title><desc>Created with Avocode.</desc><defs id="SvgjsDefs1011"></defs><path id="SvgjsPath1012" d="M789.07 384L787.5400000000001 384L785.5100000000001 384C785.2600000000001 384 785.0000000000001 383.82 785.0000000000001 383.61L785.0000000000001 375.36C785.0000000000001 374.06 786.2700000000001 373 787.7700000000001 373L801.3400000000001 373C802.8400000000001 373 804.0000000000001 374.06 804.0000000000001 375.36L804.0000000000001 383.61C804.0000000000001 383.82 803.8500000000001 384 803.6000000000001 384L801.6800000000002 384L799.9300000000002 384 " fill-opacity="0" fill="#ffffff" stroke-dasharray="0" stroke-linejoin="round" stroke-linecap="round" stroke-opacity="1" stroke="#43484d" stroke-miterlimit="50" stroke-width="2" transform="matrix(1,0,0,1,-784,-369)"></path><path id="SvgjsPath1013" d="M799 387.56C799 387.8 798.82 388 798.59 388L790.4100000000001 388C790.1800000000001 388 790.0000000000001 387.8 790.0000000000001 387.56L790.0000000000001 380.44C790.0000000000001 380.2 790.1800000000001 380 790.4100000000001 380L798.59 380C798.82 380 799 380.2 799 380.44Z " fill-opacity="0" fill="#ffffff" stroke-dasharray="0" stroke-linejoin="round" stroke-linecap="round" stroke-opacity="1" stroke="#43484d" stroke-miterlimit="50" stroke-width="2" transform="matrix(1,0,0,1,-784,-369)"></path><path id="SvgjsPath1014" d="M789 373L789 370.38C789 370.17 789.24 370 789.48 370L799.63 370C799.86 370 800 370.17 800 370.38L800 373 " fill-opacity="0" fill="#ffffff" stroke-dasharray="0" stroke-linejoin="round" stroke-linecap="round" stroke-opacity="1" stroke="#43484d" stroke-miterlimit="50" stroke-width="2" transform="matrix(1,0,0,1,-784,-369)"></path></svg>
