<?xml version="1.0" encoding="utf-8"?>
<!-- Generator: Adobe Illustrator 19.2.1, SVG Export Plug-In . SVG Version: 6.00 Build 0)  -->
<svg version="1.1" id="SvgjsSvg1062" xmlns:svgjs="http://svgjs.com/svgjs"
	 xmlns="http://www.w3.org/2000/svg" xmlns:xlink="http://www.w3.org/1999/xlink" x="0px" y="0px" viewBox="0 0 39 39"
	 style="enable-background:new 0 0 39 39;" xml:space="preserve">
<style type="text/css">
	.st0{fill:#32568B;}
</style>
<title>stats3</title>
<desc>Created with Avocode.</desc>
<path id="SvgjsPath1064" class="st0" d="M0,19.5C0,8.7,8.7,0,19.5,0S39,8.7,39,19.5S30.3,39,19.5,39S0,30.3,0,19.5z M3.3,19.5
	c0,9,7.3,16.3,16.3,16.3s16.3-7.3,16.3-16.3S28.5,3.3,19.5,3.3S3.3,10.5,3.3,19.5z M17.9,26V13c0-0.9,0.7-1.6,1.6-1.6
	s1.6,0.7,1.6,1.6v13c0,0.9-0.7,1.6-1.6,1.6S17.9,26.9,17.9,26z M24.9,27.2c-0.3-0.3-0.5-0.7-0.5-1.2v-8.1c0-0.9,0.7-1.6,1.6-1.6
	s1.6,0.7,1.6,1.6V26c0,0.4-0.2,0.8-0.5,1.2c-0.3,0.3-0.7,0.5-1.1,0.5S25.2,27.5,24.9,27.2z M13,27.6c0.4,0,0.8-0.2,1.1-0.5
	c0.3-0.3,0.5-0.7,0.5-1.2v-4.9c0-0.9-0.7-1.6-1.6-1.6s-1.6,0.7-1.6,1.6V26c0,0.4,0.2,0.8,0.5,1.2C12.2,27.5,12.6,27.6,13,27.6z"/>
</svg>
