<svg id="SvgjsSvg1234" xmlns="http://www.w3.org/2000/svg" viewBox="0 0 36 37.75">
    <title>services-3</title>
    <path id="SvgjsPath1007" d="M8.06,11.59A9.4,9.4,0,1,1,17.46,21,9.39,9.39,0,0,1,8.06,11.59Z"
          transform="translate(-0.06 -0.22)" fill="#fff" fill-opacity="0"/>
    <path d="M17.46,23a11.38,11.38,0,1,1,11.4-11.38A11.4,11.4,0,0,1,17.46,23Zm0-18.75a7.38,7.38,0,1,0,7.4,7.37A7.39,7.39,0,0,0,17.46,4.22Z"
          transform="translate(-0.06 -0.22)" fill="currentColor"/>
    <path id="SvgjsPath1010"
          d="M12.06,17l-9.34,8.4a2,2,0,0,0-.66,1.49V34a2,2,0,0,0,2,2h28a2,2,0,0,0,2-2V26.86a2,2,0,0,0-.66-1.49L24.06,17"
          transform="translate(-0.06 -0.22)" fill="#fff" fill-opacity="0"/>
    <path d="M32.06,38h-28a4,4,0,0,1-4-4V26.86a4,4,0,0,1,1.32-3l7.85-7.07a2,2,0,0,1,2.82.15h0a2,2,0,0,1-.15,2.82L4.72,26.26a2,2,0,0,0-.66,1.49V32a2,2,0,0,0,2,2h24a2,2,0,0,0,2-2V27.75a2,2,0,0,0-.66-1.49l-7.19-6.47A2,2,0,0,1,24.06,17h0a2,2,0,0,1,2.82-.15l7.85,7.07a4,4,0,0,1,1.32,3V34A4,4,0,0,1,32.06,38Z"
          transform="translate(-0.06 -0.22)" fill="currentColor"/>
</svg>