<?xml version="1.0" encoding="utf-8"?>
<!-- Generator: Adobe Illustrator 19.2.1, SVG Export Plug-In . SVG Version: 6.00 Build 0)  -->
<svg version="1.1" id="SvgjsSvg1041" xmlns:svgjs="http://svgjs.com/svgjs"
	 xmlns="http://www.w3.org/2000/svg" xmlns:xlink="http://www.w3.org/1999/xlink" x="0px" y="0px" viewBox="0 0 38 26"
	 style="enable-background:new 0 0 38 26;" xml:space="preserve">
<style type="text/css">
	.st0{fill:#FFFFFF;fill-opacity:0;}
	.st1{fill:#32568B;}
</style>
<title>Icon</title>
<desc>Created with Avocode.</desc>
<g>
	<path id="SvgjsPath1043_1_" class="st0" d="M2,2h34"/>
	<path class="st1" d="M36,4H2C0.9,4,0,3.1,0,2s0.9-2,2-2h34c1.1,0,2,0.9,2,2S37.1,4,36,4z"/>
</g>
<g>
	<path id="SvgjsPath1044_1_" class="st0" d="M2,13h34"/>
	<path class="st1" d="M36,15H2c-1.1,0-2-0.9-2-2s0.9-2,2-2h34c1.1,0,2,0.9,2,2S37.1,15,36,15z"/>
</g>
<g>
	<path id="SvgjsPath1045_1_" class="st0" d="M2,24h34"/>
	<path class="st1" d="M36,26H2c-1.1,0-2-0.9-2-2s0.9-2,2-2h34c1.1,0,2,0.9,2,2S37.1,26,36,26z"/>
</g>
</svg>
